<?xml version="1.0" encoding="utf-8"?>
<!-- Generator: Adobe Illustrator 19.0.0, SVG Export Plug-In . SVG Version: 6.00 Build 0)  -->
<svg version="1.1" id="Layer_1" xmlns="http://www.w3.org/2000/svg" xmlns:xlink="http://www.w3.org/1999/xlink" x="0px" y="0px"
	 viewBox="0 0 97.1 49" style="enable-background:new 0 0 97.1 49;" xml:space="preserve">
<style type="text/css">
	.style_card_focus_x0020_3{fill:#FAFAFA;stroke:url(#SVGID_1_);stroke-miterlimit:10;}
	.st0{fill:#006BAE;}
</style>
<linearGradient id="SVGID_1_" gradientUnits="userSpaceOnUse" x1="336.5404" y1="-48.2739" x2="336.5404" y2="-49.2739">
	<stop  offset="0" style="stop-color:#000000"/>
	<stop  offset="4.000000e-002" style="stop-color:#000000;stop-opacity:0"/>
</linearGradient>
<g id="XMLID_3994_">
	<circle id="XMLID_4292_" class="st0" cx="53.6" cy="2.2" r="2.2"/>
	<path id="XMLID_4263_" class="st0" d="M82.3,0c-5.8,0-10.5,4.7-10.4,10.5c0,0.4,0,0.9,0.1,1.3c-1.3,0.6-2.6,1.2-3.9,1.9
		c-1.2,0.6-2.3,1.3-3.5,1.9c-1.1,0.7-2.3,1.4-3.4,2.1c-2.2,1.5-4.3,3.1-6.3,4.9c-2,1.8-3.8,3.7-5.5,5.7c-0.8,1-1.6,2.1-2.4,3.2
		c-0.7,1.1-1.4,2.2-2,3.4c0,0,0,0,0,0c-0.5-0.2-1-0.3-1.5-0.3c-0.2-2.1-0.6-4.2-1-6.3c-0.5-2.3-1.2-4.6-2.2-6.8
		c-0.4-0.9-0.9-1.8-1.4-2.7c0.7-0.5,1.1-1.2,1.2-2.1c0.1-1.5-1.1-2.7-2.5-2.8c-1.5-0.1-2.7,1.1-2.8,2.5c-0.1,1.5,1.1,2.7,2.5,2.8
		c0.5,0,0.9-0.1,1.3-0.3c0.4,0.9,0.8,1.8,1.1,2.7c0.8,2.2,1.3,4.5,1.6,6.8c0.3,2,0.4,4,0.5,6c-0.6,0.1-1.1,0.2-1.6,0.4
		c-0.4-0.7-0.9-1.4-1.5-2.1c-1.2-1.6-2.7-3-4.4-4.2c-1.6-1.2-3.4-2.2-5.3-3.1c-0.9-0.4-1.9-0.8-2.9-1.1c-1-0.3-2-0.6-2.9-0.9
		c-1-0.2-2-0.5-3-0.6c-0.5-0.1-1-0.2-1.5-0.2c-0.5-0.1-1-0.1-1.5-0.2c-0.4,0-0.8-0.1-1.2-0.1c-0.1-0.3-0.2-0.5-0.4-0.7
		c-0.2-0.3-0.4-0.6-0.6-0.9c0,0,0,0,0,0c0-0.1-0.1-0.1-0.1-0.2c0,0-0.1-0.1-0.1-0.1c0,0,0,0,0,0c0,0-0.1-0.1-0.1-0.1
		c0,0-0.1-0.1-0.1-0.1c0,0-0.1-0.1-0.1-0.1c-0.4-0.4-0.9-0.7-1.4-0.9c0,0,0,0,0,0c-0.1,0-0.1-0.1-0.2-0.1c0,0,0,0-0.1,0
		c-0.1,0-0.1,0-0.2-0.1c0,0-0.1,0-0.1,0c0,0-0.1,0-0.1,0c-0.1,0-0.1,0-0.2-0.1c0,0,0,0-0.1,0c-0.1,0-0.1,0-0.2-0.1c0,0,0,0,0,0
		c-0.5-0.1-1.1-0.2-1.7-0.2c-0.1,0-0.1,0-0.2,0c0,0-0.1,0-0.1,0c-0.5,0-1,0.2-1.5,0.3c0,0,0,0,0,0c-0.1,0-0.1,0.1-0.2,0.1
		c0,0-0.1,0-0.1,0C8,19,8,19,7.9,19.1c-0.1,0-0.1,0.1-0.2,0.1c0,0-0.1,0-0.1,0c-0.1,0-0.1,0.1-0.2,0.1c0,0,0,0,0,0
		c-0.3,0.2-0.5,0.4-0.8,0.6c-0.9,0.8-1.7,1.8-2,3.1c-0.4,1.5-0.2,3.2,0.6,4.6c0.8,1.4,2.1,2.4,3.6,2.8c0.5,0.1,1.1,0.2,1.6,0.2h0
		c2.7,0,5.1-1.8,5.8-4.4c0.1-0.3,0.1-0.5,0.2-0.8c0.2,0,0.5,0,0.7,0c1,0,1.9,0,2.9,0.1c1,0.1,1.9,0.2,2.9,0.3c1,0.1,1.9,0.3,2.9,0.5
		c0.9,0.2,1.9,0.5,2.8,0.8c1.8,0.6,3.6,1.4,5.2,2.5c1.6,1,3.2,2.3,4.5,3.7c0.5,0.6,1,1.2,1.5,1.9c-2.5,1.1-4.2,3.5-4.3,6.3
		c-0.1,1.9,0.6,3.8,1.9,5.2c1.3,1.4,3.1,2.3,5,2.3c0.1,0,0.2,0,0.3,0c3.9,0,7.1-3,7.2-6.9c0.1-1.9-0.6-3.8-1.9-5.2
		c-0.7-0.8-1.5-1.4-2.5-1.8c0.7-1.1,1.4-2.1,2.2-3.1c0.8-1,1.7-2,2.6-2.9c1.8-1.8,3.8-3.5,5.8-5c2.1-1.5,4.2-2.9,6.5-4.1
		c3.3-1.9,6.8-3.5,10.4-4.9c1.7,3.5,5.3,5.8,9.4,5.8c5.8,0,10.5-4.7,10.4-10.5C92.8,4.7,88.1,0,82.3,0z M41.5,44.1v-4.7h1.2V43h1.5
		v1H41.5z"/>
	<path id="XMLID_4262_" class="st0" d="M67.8,25.1c-2.4-0.1-4.5,1.8-4.6,4.2c0,1.2,0.4,2.3,1.2,3.2c0.8,0.9,1.9,1.4,3.1,1.4
		c0.1,0,0.1,0,0.2,0c2.4,0,4.3-1.9,4.4-4.2C72.1,27.3,70.3,25.2,67.8,25.1z"/>
	<path id="XMLID_4261_" class="st0" d="M2.3,41.2L2,41.1c-0.2-0.1-0.5-0.2-0.5-0.5c0-0.3,0.3-0.4,0.5-0.4c0.3,0,0.6,0.1,0.8,0.3
		l0.5-1c-0.4-0.2-1-0.4-1.5-0.4c-0.9,0-1.6,0.6-1.6,1.6c0,0.9,0.5,1.1,1.3,1.3c0.3,0.1,0.7,0.2,0.7,0.5c0,0.3-0.3,0.5-0.6,0.5
		c-0.4,0-0.8-0.2-1.1-0.5l-0.5,1c0.5,0.3,1.1,0.5,1.7,0.5c0.5,0,1-0.1,1.3-0.4c0.4-0.3,0.5-0.8,0.5-1.3C3.5,41.7,3,41.4,2.3,41.2z"
		/>
	<polygon id="XMLID_4260_" class="st0" points="17.7,39.3 16.2,39.3 14.7,41.3 14.7,41.3 14.7,39.3 13.5,39.3 13.5,44.1 14.7,44.1 
		14.7,42 14.7,42 16.3,44.1 17.9,44.1 15.8,41.6 	"/>
	<polygon id="XMLID_4199_" class="st0" points="29.4,40.6 28.6,39.3 27.1,39.3 28.8,41.8 28.8,44.1 30.1,44.1 30.1,41.8 31.8,39.3 
		30.3,39.3 	"/>
	<path id="XMLID_4196_" class="st0" d="M55.4,39.3l-1.8,4.7h1.3l0.3-0.8h1.7l0.3,0.8h1.3l-1.8-4.7H55.4z M55.5,42.3l0.5-1.5h0
		l0.5,1.5H55.5z"/>
	<path id="XMLID_4192_" class="st0" d="M70.9,41.5L70.9,41.5c0.4-0.2,0.5-0.6,0.5-1c0-0.9-0.6-1.2-1.4-1.2h-1.8v4.7h1.9
		c0.9,0,1.7-0.3,1.7-1.3C71.9,42.1,71.6,41.6,70.9,41.5z M69.5,40.3L69.5,40.3c0.4,0,0.8,0,0.8,0.5c0,0.4-0.3,0.5-0.7,0.5h-0.1V40.3
		z M69.6,43.1h-0.2v-1h0.1c0.4,0,1-0.1,1,0.5C70.6,43.1,70,43.1,69.6,43.1z"/>
	<polygon id="XMLID_4191_" class="st0" points="83.1,39.3 81.9,39.3 81.9,44.1 84.6,44.1 84.6,43 83.1,43 	"/>
	<polygon id="XMLID_4190_" class="st0" points="97.1,40.4 97.1,39.3 94.4,39.3 94.4,44.1 97.1,44.1 97.1,43 95.6,43 95.6,42.2 
		97,42.2 97,41.2 95.6,41.2 95.6,40.4 	"/>
</g>
</svg>
