<?xml version="1.0" encoding="UTF-8" standalone="no"?>
<!-- Generator: Adobe Illustrator 19.0.0, SVG Export Plug-In . SVG Version: 6.00 Build 0)  -->

<svg
   xmlns:dc="http://purl.org/dc/elements/1.1/"
   xmlns:cc="http://creativecommons.org/ns#"
   xmlns:rdf="http://www.w3.org/1999/02/22-rdf-syntax-ns#"
   xmlns:svg="http://www.w3.org/2000/svg"
   xmlns="http://www.w3.org/2000/svg"
   xmlns:xlink="http://www.w3.org/1999/xlink"
   xmlns:sodipodi="http://sodipodi.sourceforge.net/DTD/sodipodi-0.dtd"
   xmlns:inkscape="http://www.inkscape.org/namespaces/inkscape"
   version="1.1"
   x="0px"
   y="0px"
   viewBox="0 0 48 48"
   xml:space="preserve"
   id="svg2"
   inkscape:version="0.48.4 r9939"
   width="100%"
   height="100%"
   sodipodi:docname="add_user.svg"><metadata
     id="metadata171"><rdf:RDF><cc:Work
         rdf:about=""><dc:format>image/svg+xml</dc:format><dc:type
           rdf:resource="http://purl.org/dc/dcmitype/StillImage" /></cc:Work></rdf:RDF></metadata><defs
     id="defs169" /><sodipodi:namedview
     pagecolor="#ffffff"
     bordercolor="#666666"
     borderopacity="1"
     objecttolerance="10"
     gridtolerance="10"
     guidetolerance="10"
     inkscape:pageopacity="0"
     inkscape:pageshadow="2"
     inkscape:window-width="1251"
     inkscape:window-height="898"
     id="namedview167"
     showgrid="false"
     inkscape:zoom="9.8333333"
     inkscape:cx="12"
     inkscape:cy="12"
     inkscape:window-x="0"
     inkscape:window-y="341"
     inkscape:window-maximized="0"
     inkscape:current-layer="svg2" /><style
     type="text/css"
     id="style4">
	.st0{fill:none;}
	.st1{clip-path:url(#SVGID_2_);}
	.st2{fill:none;stroke:#000000;stroke-width:0.25;stroke-miterlimit:10;}
	.st3{opacity:0.4;}
	.st4{clip-path:url(#SVGID_4_);fill:none;stroke:#000000;stroke-width:0.25;stroke-miterlimit:10;}
	.st5{clip-path:url(#SVGID_4_);}
	.st6{display:none;}
	.st7{fill:#567A91;}
</style><symbol
     id="material_x5F_system_x5F_icon_x5F_border"
     viewBox="0 -48 48 48"
     transform="translate(0,24)"><polygon
       class="st0"
       points="48,-48 48,0 0,0 0,-48 "
       id="polygon7"
       style="fill:none" /></symbol><symbol
     id="material_x5F_system_x5F_icon_x5F_grid"
     viewBox="0 -48 48 48"
     transform="translate(0,24)"><g
       id="g10"><defs
         id="defs12"><polygon
           id="SVGID_1_"
           points="0,0 48,0 48,-48 0,-48 " /></defs><clipPath
         id="SVGID_2_"><use
           xlink:href="#SVGID_1_"
           style="overflow:visible"
           id="use16"
           x="0"
           y="0"
           width="24"
           height="24" /></clipPath><g
         class="st1"
         id="g18"
         clip-path="url(#SVGID_2_)"><g
           id="g20"><line
             class="st2"
             x1="2"
             y1="-48"
             x2="2"
             y2="0"
             id="line22"
             style="fill:none;stroke:#000000;stroke-width:0.25;stroke-miterlimit:10" /><line
             class="st2"
             x1="4"
             y1="-48"
             x2="4"
             y2="0"
             id="line24"
             style="fill:none;stroke:#000000;stroke-width:0.25;stroke-miterlimit:10" /><line
             class="st2"
             x1="6"
             y1="-48"
             x2="6"
             y2="0"
             id="line26"
             style="fill:none;stroke:#000000;stroke-width:0.25;stroke-miterlimit:10" /><line
             class="st2"
             x1="8"
             y1="-48"
             x2="8"
             y2="0"
             id="line28"
             style="fill:none;stroke:#000000;stroke-width:0.25;stroke-miterlimit:10" /><line
             class="st2"
             x1="10"
             y1="-48"
             x2="10"
             y2="0"
             id="line30"
             style="fill:none;stroke:#000000;stroke-width:0.25;stroke-miterlimit:10" /><line
             class="st2"
             x1="12"
             y1="-48"
             x2="12"
             y2="0"
             id="line32"
             style="fill:none;stroke:#000000;stroke-width:0.25;stroke-miterlimit:10" /><line
             class="st2"
             x1="14"
             y1="-48"
             x2="14"
             y2="0"
             id="line34"
             style="fill:none;stroke:#000000;stroke-width:0.25;stroke-miterlimit:10" /><line
             class="st2"
             x1="16"
             y1="-48"
             x2="16"
             y2="0"
             id="line36"
             style="fill:none;stroke:#000000;stroke-width:0.25;stroke-miterlimit:10" /><line
             class="st2"
             x1="18"
             y1="-48"
             x2="18"
             y2="0"
             id="line38"
             style="fill:none;stroke:#000000;stroke-width:0.25;stroke-miterlimit:10" /><line
             class="st2"
             x1="20"
             y1="-48"
             x2="20"
             y2="0"
             id="line40"
             style="fill:none;stroke:#000000;stroke-width:0.25;stroke-miterlimit:10" /><line
             class="st2"
             x1="22"
             y1="-48"
             x2="22"
             y2="0"
             id="line42"
             style="fill:none;stroke:#000000;stroke-width:0.25;stroke-miterlimit:10" /><line
             class="st2"
             x1="24"
             y1="-48"
             x2="24"
             y2="0"
             id="line44"
             style="fill:none;stroke:#000000;stroke-width:0.25;stroke-miterlimit:10" /><line
             class="st2"
             x1="26"
             y1="-48"
             x2="26"
             y2="0"
             id="line46"
             style="fill:none;stroke:#000000;stroke-width:0.25;stroke-miterlimit:10" /><line
             class="st2"
             x1="28"
             y1="-48"
             x2="28"
             y2="0"
             id="line48"
             style="fill:none;stroke:#000000;stroke-width:0.25;stroke-miterlimit:10" /><line
             class="st2"
             x1="30"
             y1="-48"
             x2="30"
             y2="0"
             id="line50"
             style="fill:none;stroke:#000000;stroke-width:0.25;stroke-miterlimit:10" /><line
             class="st2"
             x1="32"
             y1="-48"
             x2="32"
             y2="0"
             id="line52"
             style="fill:none;stroke:#000000;stroke-width:0.25;stroke-miterlimit:10" /><line
             class="st2"
             x1="34"
             y1="-48"
             x2="34"
             y2="0"
             id="line54"
             style="fill:none;stroke:#000000;stroke-width:0.25;stroke-miterlimit:10" /><line
             class="st2"
             x1="36"
             y1="-48"
             x2="36"
             y2="0"
             id="line56"
             style="fill:none;stroke:#000000;stroke-width:0.25;stroke-miterlimit:10" /><line
             class="st2"
             x1="38"
             y1="-48"
             x2="38"
             y2="0"
             id="line58"
             style="fill:none;stroke:#000000;stroke-width:0.25;stroke-miterlimit:10" /><line
             class="st2"
             x1="40"
             y1="-48"
             x2="40"
             y2="0"
             id="line60"
             style="fill:none;stroke:#000000;stroke-width:0.25;stroke-miterlimit:10" /><line
             class="st2"
             x1="42"
             y1="-48"
             x2="42"
             y2="0"
             id="line62"
             style="fill:none;stroke:#000000;stroke-width:0.25;stroke-miterlimit:10" /><line
             class="st2"
             x1="44"
             y1="-48"
             x2="44"
             y2="0"
             id="line64"
             style="fill:none;stroke:#000000;stroke-width:0.25;stroke-miterlimit:10" /><line
             class="st2"
             x1="46"
             y1="-48"
             x2="46"
             y2="0"
             id="line66"
             style="fill:none;stroke:#000000;stroke-width:0.25;stroke-miterlimit:10" /></g><g
           id="g68"><line
             class="st2"
             x1="0"
             y1="-2"
             x2="48"
             y2="-2"
             id="line70"
             style="fill:none;stroke:#000000;stroke-width:0.25;stroke-miterlimit:10" /><line
             class="st2"
             x1="0"
             y1="-4"
             x2="48"
             y2="-4"
             id="line72"
             style="fill:none;stroke:#000000;stroke-width:0.25;stroke-miterlimit:10" /><line
             class="st2"
             x1="0"
             y1="-6"
             x2="48"
             y2="-6"
             id="line74"
             style="fill:none;stroke:#000000;stroke-width:0.25;stroke-miterlimit:10" /><line
             class="st2"
             x1="0"
             y1="-8"
             x2="48"
             y2="-8"
             id="line76"
             style="fill:none;stroke:#000000;stroke-width:0.25;stroke-miterlimit:10" /><line
             class="st2"
             x1="0"
             y1="-10"
             x2="48"
             y2="-10"
             id="line78"
             style="fill:none;stroke:#000000;stroke-width:0.25;stroke-miterlimit:10" /><line
             class="st2"
             x1="0"
             y1="-12"
             x2="48"
             y2="-12"
             id="line80"
             style="fill:none;stroke:#000000;stroke-width:0.25;stroke-miterlimit:10" /><line
             class="st2"
             x1="0"
             y1="-14"
             x2="48"
             y2="-14"
             id="line82"
             style="fill:none;stroke:#000000;stroke-width:0.25;stroke-miterlimit:10" /><line
             class="st2"
             x1="0"
             y1="-16"
             x2="48"
             y2="-16"
             id="line84"
             style="fill:none;stroke:#000000;stroke-width:0.25;stroke-miterlimit:10" /><line
             class="st2"
             x1="0"
             y1="-18"
             x2="48"
             y2="-18"
             id="line86"
             style="fill:none;stroke:#000000;stroke-width:0.25;stroke-miterlimit:10" /><line
             class="st2"
             x1="0"
             y1="-20"
             x2="48"
             y2="-20"
             id="line88"
             style="fill:none;stroke:#000000;stroke-width:0.25;stroke-miterlimit:10" /><line
             class="st2"
             x1="0"
             y1="-22"
             x2="48"
             y2="-22"
             id="line90"
             style="fill:none;stroke:#000000;stroke-width:0.25;stroke-miterlimit:10" /><line
             class="st2"
             x1="0"
             y1="-24"
             x2="48"
             y2="-24"
             id="line92"
             style="fill:none;stroke:#000000;stroke-width:0.25;stroke-miterlimit:10" /><line
             class="st2"
             x1="0"
             y1="-26"
             x2="48"
             y2="-26"
             id="line94"
             style="fill:none;stroke:#000000;stroke-width:0.25;stroke-miterlimit:10" /><line
             class="st2"
             x1="0"
             y1="-28"
             x2="48"
             y2="-28"
             id="line96"
             style="fill:none;stroke:#000000;stroke-width:0.25;stroke-miterlimit:10" /><line
             class="st2"
             x1="0"
             y1="-30"
             x2="48"
             y2="-30"
             id="line98"
             style="fill:none;stroke:#000000;stroke-width:0.25;stroke-miterlimit:10" /><line
             class="st2"
             x1="0"
             y1="-32"
             x2="48"
             y2="-32"
             id="line100"
             style="fill:none;stroke:#000000;stroke-width:0.25;stroke-miterlimit:10" /><line
             class="st2"
             x1="0"
             y1="-34"
             x2="48"
             y2="-34"
             id="line102"
             style="fill:none;stroke:#000000;stroke-width:0.25;stroke-miterlimit:10" /><line
             class="st2"
             x1="0"
             y1="-36"
             x2="48"
             y2="-36"
             id="line104"
             style="fill:none;stroke:#000000;stroke-width:0.25;stroke-miterlimit:10" /><line
             class="st2"
             x1="0"
             y1="-38"
             x2="48"
             y2="-38"
             id="line106"
             style="fill:none;stroke:#000000;stroke-width:0.25;stroke-miterlimit:10" /><line
             class="st2"
             x1="0"
             y1="-40"
             x2="48"
             y2="-40"
             id="line108"
             style="fill:none;stroke:#000000;stroke-width:0.25;stroke-miterlimit:10" /><line
             class="st2"
             x1="0"
             y1="-42"
             x2="48"
             y2="-42"
             id="line110"
             style="fill:none;stroke:#000000;stroke-width:0.25;stroke-miterlimit:10" /><line
             class="st2"
             x1="0"
             y1="-44"
             x2="48"
             y2="-44"
             id="line112"
             style="fill:none;stroke:#000000;stroke-width:0.25;stroke-miterlimit:10" /><line
             class="st2"
             x1="0"
             y1="-46"
             x2="48"
             y2="-46"
             id="line114"
             style="fill:none;stroke:#000000;stroke-width:0.25;stroke-miterlimit:10" /></g><g
           id="g116"><path
             d="M 47.7,-0.2 V -47.7 H 0.2 V -0.2 H 47.7 M 48,0 H 0 V -48 H 48 V 0 l 0,0 z"
             id="path118"
             inkscape:connector-curvature="0" /></g></g></g></symbol><symbol
     id="material_x5F_system_x5F_icon_x5F_keylines"
     viewBox="0 -48 48 48"
     transform="translate(0,24)"><g
       class="st3"
       id="g121"
       style="opacity:0.4"><defs
         id="defs123"><polygon
           id="SVGID_3_"
           class="st3"
           points="48,0 48,-48 0,-48 0,0 "
           style="opacity:0.4" /></defs><clipPath
         id="SVGID_4_"><use
           xlink:href="#SVGID_3_"
           style="overflow:visible"
           id="use127"
           x="0"
           y="0"
           width="24"
           height="24" /></clipPath><line
         class="st4"
         x1="24"
         y1="0"
         x2="24"
         y2="-48"
         id="line129"
         clip-path="url(#SVGID_4_)"
         style="fill:none;stroke:#000000;stroke-width:0.25;stroke-miterlimit:10" /><line
         class="st4"
         x1="48"
         y1="-24"
         x2="0"
         y2="-24"
         id="line131"
         clip-path="url(#SVGID_4_)"
         style="fill:none;stroke:#000000;stroke-width:0.25;stroke-miterlimit:10" /><line
         class="st4"
         x1="48"
         y1="-16"
         x2="0"
         y2="-16"
         id="line133"
         clip-path="url(#SVGID_4_)"
         style="fill:none;stroke:#000000;stroke-width:0.25;stroke-miterlimit:10" /><line
         class="st4"
         x1="48"
         y1="-32"
         x2="0"
         y2="-32"
         id="line135"
         clip-path="url(#SVGID_4_)"
         style="fill:none;stroke:#000000;stroke-width:0.25;stroke-miterlimit:10" /><line
         class="st4"
         x1="32"
         y1="-48"
         x2="32"
         y2="0"
         id="line137"
         clip-path="url(#SVGID_4_)"
         style="fill:none;stroke:#000000;stroke-width:0.25;stroke-miterlimit:10" /><line
         class="st4"
         x1="16"
         y1="-48"
         x2="16"
         y2="0"
         id="line139"
         clip-path="url(#SVGID_4_)"
         style="fill:none;stroke:#000000;stroke-width:0.25;stroke-miterlimit:10" /><line
         class="st4"
         x1="47.700001"
         y1="-0.30000001"
         x2="0.2"
         y2="-47.799999"
         id="line141"
         clip-path="url(#SVGID_4_)"
         style="fill:none;stroke:#000000;stroke-width:0.25;stroke-miterlimit:10" /><line
         class="st4"
         x1="0.2"
         y1="-0.30000001"
         x2="47.700001"
         y2="-47.799999"
         id="line143"
         clip-path="url(#SVGID_4_)"
         style="fill:none;stroke:#000000;stroke-width:0.25;stroke-miterlimit:10" /><path
         class="st4"
         d="m 24,-14 c -5.5,0 -10,-4.5 -10,-10 0,-5.5 4.5,-10 10,-10 5.5,0 10,4.5 10,10 0,5.5 -4.5,10 -10,10 z"
         id="path145"
         clip-path="url(#SVGID_4_)"
         inkscape:connector-curvature="0"
         style="fill:none;stroke:#000000;stroke-width:0.25;stroke-miterlimit:10" /><path
         class="st4"
         d="M 24,-4 C 12.9,-4 4,-12.9 4,-24 c 0,-11.1 8.9,-20 20,-20 11.1,0 20,8.9 20,20 0,11.1 -8.9,20 -20,20 z"
         id="path147"
         clip-path="url(#SVGID_4_)"
         inkscape:connector-curvature="0"
         style="fill:none;stroke:#000000;stroke-width:0.25;stroke-miterlimit:10" /><path
         class="st4"
         d="M 38,-6 H 10 C 7.8,-6 6,-7.8 6,-10 v -28 c 0,-2.2 1.8,-4 4,-4 h 28 c 2.2,0 4,1.8 4,4 v 28 c 0,2.2 -1.8,4 -4,4 z"
         id="path149"
         clip-path="url(#SVGID_4_)"
         inkscape:connector-curvature="0"
         style="fill:none;stroke:#000000;stroke-width:0.25;stroke-miterlimit:10" /><path
         class="st4"
         d="M 40,-8 H 8 C 5.8,-8 4,-9.8 4,-12 v -24 c 0,-2.2 1.8,-4 4,-4 h 32 c 2.2,0 4,1.8 4,4 l 0,24 c 0,2.2 -1.8,4 -4,4 z"
         id="path151"
         clip-path="url(#SVGID_4_)"
         inkscape:connector-curvature="0"
         style="fill:none;stroke:#000000;stroke-width:0.25;stroke-miterlimit:10" /><path
         class="st4"
         d="m 40,-40 v 32 c 0,2.2 -1.8,4 -4,4 H 12 C 9.8,-4 8,-5.8 8,-8 v -32 c 0,-2.2 1.8,-4 4,-4 h 24 c 2.2,0 4,1.8 4,4 z"
         id="path153"
         clip-path="url(#SVGID_4_)"
         inkscape:connector-curvature="0"
         style="fill:none;stroke:#000000;stroke-width:0.25;stroke-miterlimit:10" /><g
         class="st5"
         id="g155"
         clip-path="url(#SVGID_4_)"><path
           d="M 47.7,-0.3 V -47.8 H 0.2 V -0.3 H 47.7 M 48,0 H 0 V -48 H 48 V 0 l 0,0 z"
           id="path157"
           inkscape:connector-curvature="0" /></g></g></symbol><g
     id="border"
     class="st6"
     style="display:none"
     transform="translate(0,24)"><use
       xlink:href="#material_x5F_system_x5F_icon_x5F_border"
       width="48"
       height="48"
       id="XMLID_2_"
       y="-48"
       transform="matrix(0.5,0,0,-0.5,1.335069e-5,12.000061)"
       style="display:inline;overflow:visible"
       x="0" /></g><g
     id="grid"
     class="st6"
     style="display:none"
     transform="translate(0,24)"><use
       xlink:href="#material_x5F_system_x5F_icon_x5F_grid"
       width="48"
       height="48"
       id="XMLID_1_"
       x="0"
       y="-48"
       transform="matrix(0.5,0,0,-0.5,1.335069e-5,12.000061)"
       style="opacity:0.15;display:inline;overflow:visible" /></g><g
     id="keylines"
     class="st6"
     style="display:none"
     transform="translate(0,24)"><use
       xlink:href="#material_x5F_system_x5F_icon_x5F_keylines"
       width="48"
       height="48"
       id="XMLID_3_"
       x="0"
       y="-48"
       transform="matrix(0.5,0,0,-0.5,1.335069e-5,12.000061)"
       style="display:inline;overflow:visible" /></g><g
     id="Layer_4"
     transform="translate(12,12)"><path
       id="XMLID_3017_"
       class="st7"
       d="M 22,9.5 H 14.5 V 2 h -5 V 9.5 H 2 v 5 H 9.5 V 22 h 5 V 14.5 H 22 v -5 z"
       inkscape:connector-curvature="0"
       style="fill:#567a91" /></g></svg>