<?xml version="1.0" encoding="utf-8"?>
<!-- Generator: Adobe Illustrator 19.0.0, SVG Export Plug-In . SVG Version: 6.00 Build 0)  -->
<svg version="1.1" xmlns="http://www.w3.org/2000/svg" xmlns:xlink="http://www.w3.org/1999/xlink" x="0px" y="0px"
	 viewBox="0 0 24 24" style="enable-background:new 0 0 24 24;" xml:space="preserve">
<style type="text/css">
	.st0{fill:#FFC107;}
</style>
<g id="icon">
</g>
<g id="border">
</g>
<g id="grid">
</g>
<g id="keylines">
</g>
<g id="Layer_5">
	<g id="XMLID_5219_">
		<g id="XMLID_73_">
			<g id="XMLID_74_">
				<g id="XMLID_75_">
					<path id="XMLID_76_" class="st0" d="M14,2H6C4.9,2,4,2.9,4,4v16c0,1.1,0.9,2,2,2h12c1.1,0,2-0.9,2-2V8L14,2z M16.3,12.7h-0.4
						v4.7h-2.5l0.8,2.6h-0.9l-0.8-2.6h-1.1L10.7,20H9.9l0.8-2.6H8.1v-4.7H7.7v-0.9h3.4c0-0.5,0.4-0.9,0.9-0.9s0.9,0.4,0.9,0.9h3.4
						V12.7z M13,9V3.5L18.5,9H13z"/>
				</g>
			</g>
		</g>
	</g>
</g>
</svg>
