<?xml version="1.0" encoding="utf-8"?>
<!-- Generator: Adobe Illustrator 19.0.0, SVG Export Plug-In . SVG Version: 6.00 Build 0)  -->
<svg version="1.1" id="Layer_5" xmlns="http://www.w3.org/2000/svg" xmlns:xlink="http://www.w3.org/1999/xlink" x="0px" y="0px"
	 viewBox="0 0 24 24" style="enable-background:new 0 0 24 24;" xml:space="preserve">
<style type="text/css">
	.st0{fill:#F44336;}
</style>
<path id="XMLID_3515_" class="st0" d="M13,9h5.5L13,3.5V9 M6,2h8l6,6v12c0,1.1-0.9,2-2,2H6c-1.1,0-2-0.9-2-2V4C4,2.9,4.9,2,6,2
	 M10.9,12.4c0.4,0.9,0.9,1.6,1.5,2.2l0.4,0.3c-0.9,0.2-2.1,0.4-3.3,0.9l0,0l-0.1,0l0.5-1C10.4,14,10.7,13.2,10.9,12.4 M17.4,16.3
	c0.2-0.2,0.3-0.4,0.3-0.7c0-0.2,0-0.4-0.1-0.6c-0.3-0.5-1-0.7-2.3-0.7L14,14.4l-0.9-0.6c-0.6-0.5-1.2-1.4-1.6-2.6l0-0.1
	c0.3-1.3,0.6-2.9,0-3.6c-0.2-0.2-0.4-0.2-0.6-0.2h-0.2c-0.4,0-0.7,0.4-0.8,0.8c-0.4,1.3-0.1,2.1,0.2,3.3v0c-0.3,0.9-0.6,1.9-1.1,2.9
	l-1,1.8l-0.9,0.5c-1.2,0.8-1.8,1.6-1.9,2.1c0,0.2,0,0.4,0,0.5l0,0.1l0.5,0.3l0.4,0.1c0.8,0,1.7-1,3-3.1l0.2-0.1c1-0.3,2.3-0.6,4-0.7
	c1,0.5,2.2,0.7,3,0.7C16.9,16.5,17.2,16.4,17.4,16.3 M17,15.5l0.1,0.1c0,0.1,0,0.1-0.1,0.1h0l-0.2,0c-0.5,0-1.2-0.2-1.9-0.5
	c0.1-0.1,0.1-0.1,0.2-0.1C16.5,15.2,16.9,15.4,17,15.5 M7.8,17c-0.7,1.2-1.2,1.9-1.7,2c0.1-0.4,0.5-1,1.2-1.7L7.8,17 M10.9,10.1
	c-0.2-0.9-0.2-1.6-0.1-2.1l0.1-0.1L11,8c0.2,0.2,0.2,0.6,0.1,1.1l0,0.2L10.9,10.1L10.9,10.1z"/>
</svg>
