<?xml version="1.0" encoding="utf-8"?>
<!-- Generator: Adobe Illustrator 19.0.0, SVG Export Plug-In . SVG Version: 6.00 Build 0)  -->
<svg version="1.1" id="Layer_5" xmlns="http://www.w3.org/2000/svg" xmlns:xlink="http://www.w3.org/1999/xlink" x="0px" y="0px"
	 viewBox="0 0 24 24" style="enable-background:new 0 0 24 24;" xml:space="preserve">
<style type="text/css">
	.st0{fill:#00BCD4;}
</style>
<path id="XMLID_3501_" class="st0" d="M13,9h5.5L13,3.5V9 M6,2h8l6,6v12c0,1.1-0.9,2-2,2H6c-1.1,0-2-0.9-2-2V4C4,2.9,4.9,2,6,2
	 M6.1,15.5l3.7,3.7l1.4-1.4l-2.3-2.3l2.3-2.3l-1.4-1.4L6.1,15.5 M17.3,15.5l-3.7-3.7l-1.4,1.4l2.3,2.3l-2.3,2.3l1.4,1.4L17.3,15.5z"
	/>
</svg>
