<?xml version="1.0" encoding="utf-8"?>
<!-- Generator: Adobe Illustrator 19.0.0, SVG Export Plug-In . SVG Version: 6.00 Build 0)  -->
<svg version="1.1" id="Layer_1" xmlns="http://www.w3.org/2000/svg" xmlns:xlink="http://www.w3.org/1999/xlink" x="0px" y="0px"
	 viewBox="-237 239 24 24" style="enable-background:new -237 239 24 24;" xml:space="preserve">
<style type="text/css">
	.st0{fill:#FFFFFF;}
</style>
<g>
	<path class="st0" d="M-228.6,253.1c0,0.1,0.1,0.2,0.2,0.2h1c0.1,0,0.2-0.1,0.2-0.2v-0.1v-0.3v-0.6v-0.2c0-0.1-0.1-0.2-0.2-0.2h-1
		c-0.1,0-0.2,0.1-0.2,0.2v0.2v0.6v0.3V253.1z"/>
	<path class="st0" d="M-222.7,253.1c0,0.1,0.1,0.2,0.2,0.2h1c0.1,0,0.2-0.1,0.2-0.2v-0.1v-0.3v-0.6v-0.2c0-0.1-0.1-0.2-0.2-0.2h-1
		c-0.1,0-0.2,0.1-0.2,0.2v0.2v0.6v0.3V253.1z"/>
	<path class="st0" d="M-225,241c-5.5,0-10,4.5-10,10s4.5,10,10,10s10-4.5,10-10S-219.5,241-225,241z M-219,248.8v1.6v0.2
		c0,0.2-0.1,0.4-0.2,0.6v0.3v3.6c0,0.4-0.3,0.7-0.7,0.7h-10.2c-0.4,0-0.7-0.3-0.7-0.7v-3.6v-0.3c-0.1-0.2-0.2-0.4-0.2-0.6v-0.2v-1.6
		v-0.5c0-0.4,0.3-0.7,0.7-0.7h0.5h2c0-0.8,0.6-1.4,1.3-1.4h2.9c0.7,0,1.3,0.6,1.3,1.4h2h0.5c0.4,0,0.7,0.3,0.7,0.7V248.8z"/>
	<path class="st0" d="M-223.6,247.1h-2.9c-0.3,0-0.5,0.2-0.5,0.5h3.9C-223.1,247.3-223.3,247.1-223.6,247.1z"/>
</g>
</svg>
