<?xml version="1.0" encoding="utf-8"?>
<!-- Generator: Adobe Illustrator 19.0.0, SVG Export Plug-In . SVG Version: 6.00 Build 0)  -->
<svg version="1.1" id="trim_area" xmlns="http://www.w3.org/2000/svg" xmlns:xlink="http://www.w3.org/1999/xlink" x="0px" y="0px"
	 viewBox="0 0 192 192" style="enable-background:new 0 0 192 192;" xml:space="preserve">
<style type="text/css">
	.st0{fill:#2196F3;}
	.st1{opacity:0.2;fill:#263238;}
	.st2{opacity:0.2;fill:#E3F2FD;}
	.st3{fill:#FFFFFF;}
	.st4{opacity:0.2;}
	.st5{fill:#263238;}
	.st6{fill:url(#SVGID_2_);}
</style>
<path class="st0" d="M172,184H20c-6.6,0-12-5.4-12-12V20c0-6.6,5.4-12,12-12h152c6.6,0,12,5.4,12,12v152
	C184,178.6,178.6,184,172,184z"/>
<path class="st1" d="M172,183H20c-6.6,0-12-5.4-12-12v1c0,6.6,5.4,12,12,12h152c6.6,0,12-5.4,12-12v-1C184,177.6,178.6,183,172,183z
	"/>
<path class="st2" d="M172,8H20C13.4,8,8,13.4,8,20v1c0-6.6,5.4-12,12-12h152c6.6,0,12,5.4,12,12v-1C184,13.4,178.6,8,172,8z"/>
<g>
	<g id="XMLID_10_">
		
			<image style="overflow:visible;opacity:0.2;" width="668" height="491" xlink:href="EB8F5054.png"  transform="matrix(0.24 0 0 0.24 15.9446 42.4121)">
		</image>
		<g>
			<path class="st3" d="M130.5,79.8c-1.1,0-2.2,0.1-3.3,0.2c-4.1-15.7-18.3-26.9-35-26.8c-19.9,0-36.1,15.7-36,35.6
				c0,0.3,0,0.3,0,0.3h0C42.9,89,32,100.6,32,114c0,13.4,10.9,24.6,24.3,24.6l11.8,0.2l58.8,0l5.8,0c6.8,0,13.4-3,17.6-7.8
				c6.1-5.6,9.6-13.6,9.6-21.8C160,93,146.8,79.7,130.5,79.8z M85.8,120c-4.7,0-8.3-1.5-11.4-3.5l3.4-6.7c1.8,1.4,5,3,7.1,2.9
				c2.2,0,3.7-0.9,3.7-2.7c0-4.4-13-3.7-13.1-13.4c0-5.3,4.3-9.7,9.6-9.7c5.3,0,8.1,1.6,9.6,2.3l-2.3,7c-1.4-1-3.6-2.2-5.7-2.2
				c-1.4,0-2.6,1-2.6,2.1c0,3.1,12.9,3.5,12.9,13.2C97.1,115.2,93.9,120,85.8,120z M111.8,105.2l-3.7-5.8l-3.7,5.8l-5.8,0l6.6-9.8
				l-5.7-8.5l5.8,0l2.9,4.4l2.9-4.4l5.8,0l-5.7,8.5l6.6,9.8L111.8,105.2z"/>
		</g>
	</g>
	<g id="XMLID_6_">
		<g class="st4">
			<path class="st5" d="M130.5,81.1c-1.1,0-2.2,0.1-3.3,0.2c-4.1-15.7-18.3-26.9-35-26.8c-19.9,0-36.1,15.7-36,35.6
				c0,0.3,0,0.3,0,0.3h0c-13.4,0-24.3,11.6-24.2,25c0,13.4,10.9,24.6,24.3,24.6l11.8,0.2l58.8,0l5.8,0c6.8,0,13.4-3,17.6-7.8
				c6.1-5.6,9.6-13.6,9.6-21.8C160,94.3,146.8,81.1,130.5,81.1z M85.8,121.3c-4.7,0-8.3-1.5-11.4-3.5l3.4-6.7c1.8,1.4,5,3,7.1,2.9
				c2.2,0,3.7-0.9,3.7-2.7c0-4.4-13-3.7-13.1-13.4c0-5.3,4.3-9.7,9.6-9.7c5.3,0,8.1,1.6,9.6,2.3l-2.3,7c-1.4-1-3.6-2.2-5.7-2.2
				c-1.4,0-2.6,1-2.6,2.1c0,3.1,12.9,3.5,12.9,13.2C97.1,116.5,93.9,121.3,85.8,121.3z M111.8,106.5l-3.7-5.8l-3.7,5.8l-5.8,0
				l6.6-9.8l-5.7-8.5l5.8,0l2.9,4.4l2.9-4.4l5.8,0l-5.7,8.5l6.6,9.8L111.8,106.5z"/>
		</g>
		<g>
			<path class="st3" d="M130.5,79.8c-1.1,0-2.2,0.1-3.3,0.2c-4.1-15.7-18.3-26.9-35-26.8c-19.9,0-36.1,15.7-36,35.6
				c0,0.3,0,0.3,0,0.3h0C42.9,89,32,100.6,32,114c0,13.4,10.9,24.6,24.3,24.6l11.8,0.2l58.8,0l5.8,0c6.8,0,13.4-3,17.6-7.8
				c6.1-5.6,9.6-13.6,9.6-21.8C160,93,146.8,79.7,130.5,79.8z M85.8,120c-4.7,0-8.3-1.5-11.4-3.5l3.4-6.7c1.8,1.4,5,3,7.1,2.9
				c2.2,0,3.7-0.9,3.7-2.7c0-4.4-13-3.7-13.1-13.4c0-5.3,4.3-9.7,9.6-9.7c5.3,0,8.1,1.6,9.6,2.3l-2.3,7c-1.4-1-3.6-2.2-5.7-2.2
				c-1.4,0-2.6,1-2.6,2.1c0,3.1,12.9,3.5,12.9,13.2C97.1,115.2,93.9,120,85.8,120z M111.8,105.2l-3.7-5.8l-3.7,5.8l-5.8,0l6.6-9.8
				l-5.7-8.5l5.8,0l2.9,4.4l2.9-4.4l5.8,0l-5.7,8.5l6.6,9.8L111.8,105.2z"/>
		</g>
	</g>
</g>
<radialGradient id="SVGID_2_" cx="-15.4474" cy="-15.7368" r="276.5349" gradientUnits="userSpaceOnUse">
	<stop  offset="0" style="stop-color:#E3F2FD;stop-opacity:0.2"/>
	<stop  offset="1" style="stop-color:#FFFFFF;stop-opacity:0"/>
</radialGradient>
<path class="st6" d="M172,184H20c-6.6,0-12-5.4-12-12V20c0-6.6,5.4-12,12-12h152c6.6,0,12,5.4,12,12v152
	C184,178.6,178.6,184,172,184z"/>
</svg>
