<?xml version="1.0" encoding="utf-8"?>
<!-- Generator: Adobe Illustrator 19.0.0, SVG Export Plug-In . SVG Version: 6.00 Build 0)  -->
<svg version="1.1" id="Layer_1" xmlns="http://www.w3.org/2000/svg" xmlns:xlink="http://www.w3.org/1999/xlink" x="0px" y="0px"
	 viewBox="0 0 189.6 64" style="enable-background:new 0 0 189.6 64;" xml:space="preserve">
<style type="text/css">
	.style_card_focus_x0020_3{fill:#FAFAFA;stroke:url(#SVGID_1_);stroke-miterlimit:10;}
	.st0{fill:#FFFFFF;}
</style>
<linearGradient id="SVGID_1_" gradientUnits="userSpaceOnUse" x1="382.8265" y1="-40.753" x2="382.8265" y2="-41.753">
	<stop  offset="0" style="stop-color:#000000"/>
	<stop  offset="4.000000e-002" style="stop-color:#000000;stop-opacity:0"/>
</linearGradient>
<g id="XMLID_2463_">
	<g id="XMLID_2639_">
		<path id="XMLID_3589_" class="st0" d="M128.2,38c0,4-1.1,7-3.3,9.1c-2.2,2.1-5.4,3.1-9.5,3.1h-6.7V26.3h7.4c3.8,0,6.8,1,8.9,3.1
			C127.1,31.4,128.2,34.3,128.2,38z M124.1,38.1c0-5.7-2.7-8.6-8-8.6h-3.4v17.4h2.8C121.2,46.9,124.1,44,124.1,38.1z"/>
		<path id="XMLID_3568_" class="st0" d="M142.1,31.8c0.8,0,1.4,0.1,1.9,0.2l-0.4,3.6c-0.5-0.1-1.1-0.2-1.7-0.2
			c-1.5,0-2.8,0.5-3.7,1.5c-1,1-1.4,2.3-1.4,3.9v9.5h-3.8V32.1h3l0.5,3.2h0.2c0.6-1.1,1.4-1.9,2.4-2.6C140,32.1,141,31.8,142.1,31.8
			z"/>
		<path id="XMLID_3553_" class="st0" d="M147.1,27.3c0-0.7,0.2-1.2,0.6-1.6c0.4-0.4,0.9-0.6,1.6-0.6c0.7,0,1.2,0.2,1.6,0.6
			c0.4,0.4,0.6,0.9,0.6,1.6c0,0.7-0.2,1.2-0.6,1.5c-0.4,0.4-0.9,0.6-1.6,0.6c-0.7,0-1.2-0.2-1.6-0.6
			C147.3,28.5,147.1,27.9,147.1,27.3z M151.2,50.2h-3.8V32.1h3.8V50.2z"/>
		<path id="XMLID_2657_" class="st0" d="M160.9,50.2L154,32.1h4.1l3.7,10.5c0.6,1.8,1,3.2,1.1,4.3h0.1c0.1-0.8,0.5-2.2,1.1-4.3
			l3.7-10.5h4.1L165,50.2H160.9z"/>
		<path id="XMLID_2640_" class="st0" d="M182.6,50.5c-2.8,0-5-0.8-6.6-2.5c-1.6-1.6-2.4-3.9-2.4-6.8c0-3,0.7-5.3,2.2-7
			c1.5-1.7,3.5-2.5,6.1-2.5c2.4,0,4.3,0.7,5.7,2.2c1.4,1.5,2.1,3.5,2.1,6V42h-12.1c0.1,1.8,0.5,3.1,1.4,4.1c0.9,0.9,2.2,1.4,3.8,1.4
			c1.1,0,2.1-0.1,3-0.3c0.9-0.2,1.9-0.5,3-1v3.1c-0.9,0.4-1.9,0.8-2.8,0.9C184.9,50.4,183.8,50.5,182.6,50.5z M181.9,34.7
			c-1.2,0-2.2,0.4-2.9,1.2c-0.7,0.8-1.2,1.9-1.3,3.4h8.2c0-1.5-0.4-2.6-1.1-3.4C184.1,35.1,183.1,34.7,181.9,34.7z"/>
	</g>
	<path id="XMLID_2479_" class="st0" d="M73.6,19.9c-0.8,0-1.6,0-2.5,0.1C68.1,8.3,57.5,0,45,0C30.1,0,18.1,11.9,18.1,26.8
		c0,0.2,0,0.4,0,0.4h0C8.1,27.2,0,35.7,0,45.7c0,10,8.2,18.3,18.2,18.3L27,64l43.9,0l4.4,0c5.1,0,10-2.3,13.2-5.8
		C93,54,95.6,48,95.6,41.9C95.6,29.8,85.7,19.9,73.6,19.9z M40.1,49.9c-3.5,0-6.2-1.1-8.5-2.6l2.6-5c1.4,1,3.7,2.2,5.3,2.2
		c1.6,0,2.8-0.6,2.8-2.1c0-3.3-9.7-2.7-9.7-10c0-4,3.2-7.2,7.2-7.2c4,0,6.1,1.2,7.2,1.8l-1.7,5.2c-1.1-0.7-2.7-1.6-4.3-1.6
		c-1.1,0-1.9,0.7-1.9,1.6c0,2.3,9.6,2.6,9.7,9.8C48.6,46.3,46.2,49.9,40.1,49.9z M59.6,38.9l-2.8-4.3L54,38.9l-4.3,0l4.9-7.3
		l-4.2-6.3l4.3,0l2.1,3.3l2.1-3.3l4.3,0L59,31.6l4.9,7.3L59.6,38.9z"/>
</g>
</svg>
