<?xml version="1.0" encoding="UTF-8" standalone="no"?>
<!-- Generator: Adobe Illustrator 19.0.0, SVG Export Plug-In . SVG Version: 6.00 Build 0)  -->

<svg
   xmlns:dc="http://purl.org/dc/elements/1.1/"
   xmlns:cc="http://creativecommons.org/ns#"
   xmlns:rdf="http://www.w3.org/1999/02/22-rdf-syntax-ns#"
   xmlns:svg="http://www.w3.org/2000/svg"
   xmlns="http://www.w3.org/2000/svg"
   xmlns:xlink="http://www.w3.org/1999/xlink"
   xmlns:sodipodi="http://sodipodi.sourceforge.net/DTD/sodipodi-0.dtd"
   xmlns:inkscape="http://www.inkscape.org/namespaces/inkscape"
   version="1.1"
   id="Layer_1"
   x="0px"
   y="0px"
   viewBox="0 0 280 160"
   xml:space="preserve"
   inkscape:version="0.48.4 r9939"
   width="100%"
   height="100%"
   sodipodi:docname="menu_bg.svg"><metadata
     id="metadata31"><rdf:RDF><cc:Work
         rdf:about=""><dc:format>image/svg+xml</dc:format><dc:type
           rdf:resource="http://purl.org/dc/dcmitype/StillImage" /></cc:Work></rdf:RDF></metadata><defs
     id="defs29" /><sodipodi:namedview
     pagecolor="#ffffff"
     bordercolor="#666666"
     borderopacity="1"
     objecttolerance="10"
     gridtolerance="10"
     guidetolerance="10"
     inkscape:pageopacity="0"
     inkscape:pageshadow="2"
     inkscape:window-width="1920"
     inkscape:window-height="1148"
     id="namedview27"
     showgrid="false"
     inkscape:zoom="2.4934818"
     inkscape:cx="116.88748"
     inkscape:cy="110.61808"
     inkscape:window-x="0"
     inkscape:window-y="0"
     inkscape:window-maximized="1"
     inkscape:current-layer="Layer_1" /><style
     type="text/css"
     id="style3">
	.style_card_focus_x0020_3{fill:#FAFAFA;stroke:url(#SVGID_1_);stroke-miterlimit:10;}
	.st0{fill:#2196F3;}
	.st1{opacity:0.3;clip-path:url(#XMLID_42_);}
	.st2{fill:#006BAE;}
</style><linearGradient
     id="SVGID_1_"
     gradientUnits="userSpaceOnUse"
     x1="425.89511"
     y1="13"
     x2="425.89511"
     y2="12"><stop
       offset="0"
       style="stop-color:#000000"
       id="stop6" /><stop
       offset="4.000000e-002"
       style="stop-color:#000000;stop-opacity:0"
       id="stop8" /></linearGradient><rect
     id="XMLID_3660_"
     class="st0"
     width="280"
     height="160"
     x="0"
     y="-9.5367432e-07"
     style="fill:#2196f3" /><g
     id="XMLID_3649_"
     transform="matrix(0.92105263,0,0,0.93023256,0,-10e-7)"><defs
       id="defs12"><rect
         id="XMLID_3650_"
         width="304"
         height="172"
         x="0"
         y="0" /></defs><clipPath
       id="XMLID_42_"><use
         xlink:href="#XMLID_3650_"
         style="overflow:visible"
         id="use16"
         x="0"
         y="0"
         width="304"
         height="172" /></clipPath><g
       id="XMLID_3651_"
       class="st1"
       clip-path="url(#XMLID_42_)"
       style="opacity:0.3"><g
         id="XMLID_3656_"><circle
           id="XMLID_3659_"
           class="st2"
           cx="88.800003"
           cy="94.199997"
           r="5.9000001"
           sodipodi:cx="88.800003"
           sodipodi:cy="94.199997"
           sodipodi:rx="5.9000001"
           sodipodi:ry="5.9000001"
           style="fill:#006bae"
           d="m 94.700003,94.199997 c 0,3.25848 -2.64152,5.900003 -5.9,5.900003 -3.25848,0 -5.9,-2.641523 -5.9,-5.900003 0,-3.25848 2.64152,-5.9 5.9,-5.9 3.25848,0 5.9,2.64152 5.9,5.9 z" /><path
           id="XMLID_3658_"
           class="st2"
           d="m 93.3,168.1 c -5.8,-3.4 -13.1,-1.5 -16.5,4.2 -1.6,2.8 -2.1,6 -1.3,9.1 0.8,3.1 2.8,5.7 5.5,7.4 0.1,0.1 0.3,0.2 0.5,0.3 5.7,3.1 12.8,1.1 16.1,-4.5 3.3,-5.7 1.4,-13.1 -4.3,-16.5 z"
           inkscape:connector-curvature="0"
           style="fill:#006bae" /><path
           id="XMLID_3657_"
           class="st2"
           d="m 160.8,126.2 c -14,-7.4 -31.4,-2.1 -38.8,11.9 -0.6,1.1 -1,2.1 -1.5,3.2 -4,-0.3 -7.9,-0.4 -11.9,-0.5 -3.6,-0.1 -7.3,0 -10.9,0.1 -3.6,0.2 -7.3,0.4 -10.9,0.8 -7.2,0.7 -14.4,1.9 -21.5,3.6 -7.1,1.7 -14,3.9 -20.6,6.6 -3.3,1.4 -6.6,2.9 -9.8,4.6 -3.2,1.7 -6.3,3.5 -9.2,5.5 0,0 0,0 -0.1,0 -0.9,-1 -2,-1.9 -3.1,-2.7 2.2,-5.4 4.1,-10.9 5.7,-16.5 1.7,-6.3 3,-12.8 3.5,-19.4 0.2,-2.8 0.2,-5.5 0.1,-8.3 2.2,-0.2 4.3,-1.5 5.5,-3.5 2,-3.5 0.9,-7.9 -2.6,-10 -3.5,-2 -7.9,-0.9 -10,2.6 -2,3.5 -0.9,7.9 2.6,10 1.1,0.7 2.3,1 3.5,1 -0.1,2.7 -0.4,5.4 -0.8,8.1 -1,6.3 -2.8,12.5 -5,18.6 -1.9,5.2 -4.2,10.3 -6.7,15.2 -1.4,-0.6 -2.9,-1 -4.4,-1.2 -0.1,-2.4 -0.4,-4.7 -0.8,-7 -0.9,-5.5 -2.7,-10.8 -5,-15.9 -2.4,-5.1 -5.4,-9.8 -8.8,-14.2 -1.7,-2.2 -3.6,-4.3 -5.5,-6.4 -1.9,-2 -3.9,-4 -6,-5.9 -2.1,-1.9 -4.2,-3.7 -6.4,-5.4 -1.1,-0.9 -2.2,-1.7 -3.3,-2.6 -1.1,-0.8 -2.3,-1.7 -3.4,-2.5 -0.9,-0.6 -1.9,-1.3 -2.8,-1.9 0.1,-0.7 0.1,-1.5 0.1,-2.3 0,-1 -0.1,-2 -0.3,-2.9 0,0 0,0 0,0 0,-0.2 -0.1,-0.4 -0.1,-0.6 0,-0.1 -0.1,-0.3 -0.1,-0.4 0,0 0,-0.1 0,-0.1 0,-0.1 -0.1,-0.3 -0.1,-0.4 0,-0.1 -0.1,-0.3 -0.1,-0.4 0,-0.1 -0.1,-0.2 -0.1,-0.3 -0.5,-1.5 -1.2,-2.8 -2.1,-4.1 0,0 0,-0.1 -0.1,-0.1 -0.1,-0.2 -0.2,-0.3 -0.4,-0.5 0,-0.1 -0.1,-0.1 -0.1,-0.2 -0.1,-0.1 -0.2,-0.2 -0.3,-0.4 -0.1,-0.1 -0.2,-0.2 -0.2,-0.3 -0.1,-0.1 -0.1,-0.2 -0.2,-0.2 -0.1,-0.1 -0.2,-0.2 -0.3,-0.4 0,0 -0.1,-0.1 -0.1,-0.1 -0.1,-0.1 -0.3,-0.3 -0.5,-0.4 0,0 0,0 -0.1,0 -1.1,-1 -2.4,-1.9 -3.8,-2.6 -0.1,-0.1 -0.3,-0.1 -0.4,-0.2 -0.1,0 -0.2,-0.1 -0.3,-0.1 -1.3,-0.5 -2.6,-0.9 -4,-1.1 0,0 -0.1,0 -0.1,0 -0.2,0 -0.4,-0.1 -0.6,-0.1 -0.1,0 -0.2,0 -0.3,0 -0.2,0 -0.3,0 -0.5,0 -0.2,0 -0.3,0 -0.5,0 -0.1,0 -0.2,0 -0.3,0 -0.2,0 -0.4,0 -0.7,0 0,0 -0.1,0 -0.1,0 -0.9,0 -1.8,0.1 -2.7,0.3 -3.3,0.6 -6.4,2.3 -8.8,4.8 -3,3.2 -4.6,7.4 -4.5,11.8 0.1,4.4 1.9,8.5 5.1,11.5 1.1,1 2.3,1.9 3.6,2.6 l 0,0 c 6.5,3.5 14.6,2.2 19.7,-3.2 0.5,-0.5 1,-1.1 1.4,-1.7 0.6,0.3 1.1,0.6 1.7,0.9 2.3,1.2 4.6,2.6 6.9,4 2.2,1.4 4.5,2.9 6.6,4.4 2.1,1.6 4.2,3.2 6.2,5 2,1.7 3.9,3.6 5.7,5.5 3.6,3.9 6.8,8.1 9.5,12.8 2.6,4.6 4.7,9.6 6,14.8 0.5,2.1 1,4.3 1.2,6.5 -7.3,-0.6 -14.6,3 -18.6,9.7 -2.7,4.6 -3.5,9.9 -2.1,15 1.3,5.1 4.6,9.5 9.1,12.2 0.2,0.1 0.5,0.3 0.7,0.4 9.4,5 21,1.8 26.5,-7.4 2.7,-4.6 3.5,-9.9 2.1,-15 -0.7,-2.8 -2,-5.3 -3.7,-7.4 3,-1.7 6.2,-3.3 9.4,-4.6 3.2,-1.4 6.6,-2.6 9.9,-3.6 6.7,-2.1 13.6,-3.5 20.5,-4.5 6.9,-1 13.9,-1.5 20.9,-1.6 10.5,-0.2 21,0.5 31.4,1.7 -0.3,10.6 5.2,21 15.2,26.3 14,7.4 31.4,2.1 38.8,-11.9 7.2,-14.2 1.9,-31.6 -12.1,-39 z"
           inkscape:connector-curvature="0"
           style="fill:#006bae" /></g><g
         id="XMLID_3652_"><circle
           id="XMLID_3655_"
           class="st2"
           cx="264.60001"
           cy="86.599998"
           r="5.9000001"
           sodipodi:cx="264.60001"
           sodipodi:cy="86.599998"
           sodipodi:rx="5.9000001"
           sodipodi:ry="5.9000001"
           style="fill:#006bae"
           d="m 270.50001,86.599998 c 0,3.258481 -2.64152,5.900001 -5.9,5.900001 -3.25848,0 -5.9,-2.64152 -5.9,-5.900001 0,-3.25848 2.64152,-5.9 5.9,-5.9 3.25848,0 5.9,2.64152 5.9,5.9 z" /><path
           id="XMLID_3654_"
           class="st2"
           d="m 231.4,20.5 c 6.7,0.9 12.7,-3.8 13.5,-10.4 0.4,-3.2 -0.4,-6.4 -2.4,-8.9 -2,-2.6 -4.8,-4.2 -8,-4.6 -0.2,0 -0.3,0 -0.5,-0.1 -6.5,-0.6 -12.2,4 -13,10.4 -0.8,6.6 3.8,12.7 10.4,13.6 z"
           inkscape:connector-curvature="0"
           style="fill:#006bae" /><path
           id="XMLID_3653_"
           class="st2"
           d="m 185.8,85.5 c 15.8,1.3 29.7,-10.4 31,-26.1 0.1,-1.2 0.1,-2.4 0.1,-3.6 3.8,-1.3 7.5,-2.7 11.2,-4.2 3.4,-1.4 6.7,-2.8 10,-4.4 3.3,-1.6 6.5,-3.2 9.7,-5 6.4,-3.5 12.5,-7.4 18.3,-11.7 5.8,-4.3 11.3,-9.1 16.4,-14.2 2.5,-2.6 4.9,-5.3 7.2,-8.1 2.3,-2.8 4.4,-5.7 6.3,-8.7 0,0 0,0 0,-0.1 1.3,0.6 2.6,1 3.9,1.3 0.1,5.8 0.5,11.6 1.3,17.4 0.9,6.5 2.3,13 4.4,19.2 0.9,2.6 1.9,5.2 3.2,7.7 -1.9,1.1 -3.3,3 -3.7,5.4 -0.5,4 2.3,7.6 6.3,8.2 4,0.5 7.6,-2.3 8.2,-6.3 0.5,-4 -2.3,-7.6 -6.3,-8.2 -1.3,-0.2 -2.5,0 -3.6,0.5 -1,-2.5 -1.8,-5.1 -2.4,-7.7 -1.6,-6.2 -2.3,-12.6 -2.7,-19 -0.3,-5.5 -0.2,-11.1 0.2,-16.6 1.6,0 3.1,-0.2 4.5,-0.6 1,2.1 2.2,4.2 3.5,6.2 3,4.7 6.7,8.9 10.9,12.6 4.2,3.7 8.8,6.9 13.7,9.6 2.5,1.4 5,2.6 7.5,3.7 2.6,1.1 5.2,2.1 7.8,3.1 2.7,0.9 5.3,1.7 8,2.5 1.4,0.4 2.7,0.7 4.1,1 1.4,0.3 2.7,0.6 4.1,0.9 1.1,0.2 2.2,0.5 3.3,0.7 0.2,0.7 0.5,1.4 0.8,2.1 0.4,0.9 0.9,1.8 1.5,2.6 0,0 0,0 0,0 0.1,0.2 0.2,0.3 0.3,0.5 0.1,0.1 0.2,0.2 0.3,0.4 0,0 0.1,0.1 0.1,0.1 0.1,0.1 0.2,0.2 0.3,0.3 0.1,0.1 0.2,0.2 0.3,0.3 0.1,0.1 0.1,0.2 0.2,0.2 1.1,1.2 2.3,2.1 3.6,2.9 0,0 0.1,0 0.1,0 0.2,0.1 0.3,0.2 0.5,0.3 0.1,0 0.1,0.1 0.2,0.1 0.1,0.1 0.3,0.1 0.4,0.2 0.1,0.1 0.2,0.1 0.3,0.2 0.1,0 0.2,0.1 0.3,0.1 0.2,0.1 0.3,0.1 0.5,0.2 0.1,0 0.1,0 0.2,0.1 0.2,0.1 0.4,0.2 0.6,0.2 0,0 0,0 0.1,0 1.4,0.5 3,0.8 4.5,0.9 0.1,0 0.3,0 0.4,0 0.1,0 0.2,0 0.3,0 1.4,0 2.7,-0.2 4.1,-0.5 0,0 0.1,0 0.1,0 0.2,-0.1 0.4,-0.1 0.6,-0.2 0.1,0 0.2,-0.1 0.3,-0.1 0.1,0 0.3,-0.1 0.4,-0.2 0.2,-0.1 0.3,-0.1 0.5,-0.2 0.1,0 0.2,-0.1 0.3,-0.1 0.2,-0.1 0.4,-0.2 0.6,-0.3 0,0 0.1,0 0.1,0 0.8,-0.4 1.6,-0.8 2.3,-1.3 2.8,-1.9 4.9,-4.6 6.2,-7.9 1.5,-4.1 1.4,-8.6 -0.5,-12.6 -1.8,-4 -5.1,-7 -9.2,-8.6 -1.4,-0.5 -2.8,-0.8 -4.3,-1 l 0,0 c -7.4,-0.7 -14.3,3.7 -16.9,10.7 -0.3,0.7 -0.5,1.4 -0.6,2.1 -0.6,0 -1.2,-0.1 -1.9,-0.1 -2.6,-0.2 -5.3,-0.5 -7.9,-0.9 -2.6,-0.4 -5.2,-0.9 -7.8,-1.5 -2.6,-0.6 -5.1,-1.3 -7.7,-2.1 -2.5,-0.8 -5,-1.8 -7.4,-2.8 -4.8,-2.1 -9.5,-4.8 -13.7,-8 -4.2,-3.2 -8.1,-7 -11.3,-11.3 -1.3,-1.7 -2.6,-3.6 -3.7,-5.5 7,-2.3 12.3,-8.5 13.3,-16.2 0.7,-5.3 -0.7,-10.5 -3.9,-14.7 -3.2,-4.2 -7.9,-6.9 -13.2,-7.6 -0.3,0 -0.6,-0.1 -0.9,-0.1 -10.6,-0.9 -20,6.6 -21.4,17.2 -0.7,5.3 0.7,10.5 3.9,14.7 1.7,2.3 3.9,4.1 6.3,5.4 -2.1,2.8 -4.4,5.4 -6.8,7.9 -2.4,2.5 -5,4.9 -7.7,7.2 -5.3,4.6 -11.1,8.6 -17.1,12.2 -6,3.6 -12.2,6.8 -18.6,9.6 -9.6,4.1 -19.5,7.7 -29.5,10.7 -3.8,-9.9 -13,-17.2 -24.3,-18.2 -15.8,-1.3 -29.7,10.4 -31,26.1 -1.4,15.8 10.3,29.7 26.1,31 z"
           inkscape:connector-curvature="0"
           style="fill:#006bae" /></g></g></g></svg>