<?xml version="1.0" encoding="utf-8"?>
<!-- Generator: Adobe Illustrator 19.0.0, SVG Export Plug-In . SVG Version: 6.00 Build 0)  -->
<svg version="1.1" id="Layer_5" xmlns="http://www.w3.org/2000/svg" xmlns:xlink="http://www.w3.org/1999/xlink" x="0px" y="0px"
	 viewBox="0 0 24 24" style="enable-background:new 0 0 24 24;" xml:space="preserve">
<style type="text/css">
	.st0{fill:#B6C2CB;}
</style>
<g id="XMLID_5802_">
	<g id="XMLID_5808_">
		<path id="XMLID_5809_" class="st0" d="M12,2C6.5,2,2,6.5,2,12s4.5,10,10,10c5.5,0,10-4.5,10-10S17.5,2,12,2L12,2z M12,20
			c-4.4,0-8-3.6-8-8s3.6-8,8-8s8,3.6,8,8S16.4,20,12,20L12,20z"/>
	</g>
	<g id="XMLID_5805_">
		<path id="XMLID_5806_" class="st0" d="M9,9.5l3,3.1l3.1-3.1l0.9,0.9l-4,4l-4-4L9,9.5z"/>
	</g>
</g>
</svg>
