<?xml version="1.0" encoding="utf-8"?>
<!-- Generator: Adobe Illustrator 19.0.0, SVG Export Plug-In . SVG Version: 6.00 Build 0)  -->
<svg version="1.1" id="Layer_1" xmlns="http://www.w3.org/2000/svg" xmlns:xlink="http://www.w3.org/1999/xlink" x="0px" y="0px"
	 viewBox="0 0 200 200" style="enable-background:new 0 0 200 200;" xml:space="preserve">
<style type="text/css">
	.st0{fill:#CFD8DC;}
</style>
<g id="XMLID_4792_">
	<path id="XMLID_4862_" class="st0" d="M192.5,144.2v-19.5c0-19.5-38.9-29.2-58.4-29.2c-19.5,0-58.4,9.7-58.4,29.2v19.5h29.2
		c0,0.9,0.1,1.7,0.1,2.4l-6.5,5.1c-1.6,1.3-2.1,3.6-1,5.4l7.1,12.3c1,1.8,3.2,2.6,5.2,1.9l7.7-3.1c1.4,1,2.8,1.8,4.2,2.5l1.1,8.2
		c0.3,2,2.1,3.5,4.2,3.5h14.3c2.1,0,3.8-1.5,4.2-3.6l1.1-8.2c1.4-0.7,2.8-1.5,4.2-2.5l7.8,3.1c1.9,0.7,4.1-0.1,5.1-1.8l7.2-12.4
		c1-1.8,0.5-4.1-1.1-5.3l-6.5-5.1c0.1-0.7,0.1-1.6,0.1-2.4H192.5z M98.5,136.7c-1.7-1.3-2.1-3.6-1-5.4l7.2-12.4
		c1-1.8,3.2-2.6,5.2-1.8l7.7,3.1c1.4-1,2.8-1.8,4.2-2.5l1.1-8.2c0.3-2.1,2.1-3.6,4.2-3.6h14.3c2.1,0,3.8,1.5,4.2,3.5l1.1,8.2
		c1.4,0.6,2.8,1.5,4.2,2.5l7.7-3.1c1.9-0.8,4.2,0,5.2,1.9l7.1,12.3c1,1.9,0.6,4.1-1,5.4l-6.5,5c0.1,0.8,0.1,1.6,0.1,2.5h-4.8
		c0-1.1-0.1-2.3-0.2-3.3l-0.2-1.3l8.2-6.3l-6.6-11.5l-9.6,3.9l-1.1-0.8c-2-1.5-3.7-2.5-5.5-3.2l-1.3-0.5l-1.4-10.3h-13.3l-1.4,10.3
		l-1.3,0.5c-1.8,0.7-3.5,1.7-5.5,3.2l-1.1,0.8l-9.6-3.9l-6.6,11.5l8.2,6.3l-0.2,1.3c-0.1,1-0.2,2.1-0.2,3.3h-4.8
		c0-0.9,0.1-1.7,0.1-2.5L98.5,136.7z M134.1,134.1c-5.6,0-10.1,4.5-10.1,10.1h-4.8c0-8.2,6.7-14.9,14.9-14.9S149,136,149,144.2h-4.8
		C144.2,138.6,139.7,134.1,134.1,134.1z M144.2,144.2c0,5.6-4.5,10.1-10.1,10.1s-10.1-4.5-10.1-10.1H144.2z M166.3,155.2l-6.6,11.5
		l-9.7-3.9l-1.1,0.8c-1.8,1.4-3.6,2.4-5.5,3.2l-1.3,0.5l-1.4,10.3h-13.3l-1.4-10.3l-1.3-0.5c-1.8-0.7-3.6-1.7-5.5-3.2l-1.1-0.8
		l-9.7,3.9l-6.6-11.5l8.2-6.4l-0.2-1.3c-0.1-0.9-0.2-2-0.2-3.2h9.5c0,8.2,6.7,14.9,14.9,14.9s14.9-6.7,14.9-14.9h9.5
		c0,1.2-0.1,2.3-0.2,3.2l-0.2,1.3L166.3,155.2z"/>
	<circle id="XMLID_4866_" class="st0" cx="134.1" cy="46.8" r="29.2"/>
	<polygon id="XMLID_4867_" class="st0" points="85.4,66.3 56.2,66.3 56.2,37.1 36.7,37.1 36.7,66.3 7.5,66.3 7.5,85.8 36.7,85.8 
		36.7,115 56.2,115 56.2,85.8 85.4,85.8 	"/>
</g>
</svg>
