<?xml version="1.0" encoding="utf-8"?>
<!-- Generator: Adobe Illustrator 19.0.0, SVG Export Plug-In . SVG Version: 6.00 Build 0)  -->
<svg version="1.1" id="Layer_1" xmlns="http://www.w3.org/2000/svg" xmlns:xlink="http://www.w3.org/1999/xlink" x="0px" y="0px"
	 viewBox="0 0 200 200" style="enable-background:new 0 0 200 200;" xml:space="preserve">
<style type="text/css">
	.st0{fill:#FFFFFF;}
	.st1{fill:#CFD8DC;}
</style>
<g id="XMLID_316_">
	<g id="XMLID_6335_">
		<polygon id="XMLID_6337_" class="st0" points="107.5,115.7 107.5,104.6 98.8,104.6 98.8,95.9 92.5,95.9 92.5,115.7 98.8,115.7 		
			"/>
		<polygon id="XMLID_6338_" class="st0" points="101.2,102.1 108.1,102.1 101.2,95.2 		"/>
		<path id="XMLID_6341_" class="st1" d="M102.5,93.4h-9.9c-1.4,0-2.5,1.1-2.5,2.5v19.9c0,1.4,1.1,2.5,2.5,2.5h14.9
			c1.4,0,2.5-1.1,2.5-2.5v-14.9L102.5,93.4z M92.5,95.9h6.2v8.7h8.7v11.2h-8.7h-6.2V95.9z M101.2,102.1v-6.8l6.8,6.8H101.2z"/>
	</g>
	<path id="XMLID_6328_" class="st1" d="M146.4,134.8H53.6v-58h92.8 M146.4,65.2H100L88.4,53.6H53.6c-6.4,0-11.6,5.2-11.6,11.6v69.6
		c0,6.4,5.2,11.6,11.6,11.6h92.8c6.4,0,11.6-5.2,11.6-11.6v-58C158,70.4,152.8,65.2,146.4,65.2z"/>
	<g id="XMLID_6489_">
		<polygon id="XMLID_6491_" class="st0" points="182.1,107.2 183.9,107.2 185.3,104.5 186.6,107.2 188.4,107.2 189.8,100.9 
			190.7,100.9 190.7,99.1 187.1,99.1 187.1,100.9 188,100.9 187.2,104.7 186.2,102.7 184.4,102.7 183.4,104.7 182.6,100.9 
			183.5,100.9 183.5,99.1 179.9,99.1 179.9,100.9 180.8,100.9 		"/>
		<polygon id="XMLID_6492_" class="st0" points="186.2,97.3 191.1,97.3 186.2,92.3 		"/>
		<path id="XMLID_6553_" class="st1" d="M187.1,91h-7.2c-1,0-1.8,0.8-1.8,1.8v14.4c0,1,0.8,1.8,1.8,1.8h10.8c1,0,1.8-0.8,1.8-1.8
			V96.4L187.1,91z M179.9,99.1h3.6v1.8h-0.9l0.8,3.8l1-2h1.8l1,2l0.8-3.8h-0.9v-1.8h3.6v1.8h-0.9l-1.4,6.3h-1.8l-1.4-2.7l-1.4,2.7
			h-1.8l-1.4-6.3h-0.9V99.1z M186.2,97.3v-5l5,5H186.2z"/>
	</g>
	<g id="XMLID_6494_">
		<polygon id="XMLID_6510_" class="st0" points="41.1,152.1 41.1,157.1 46.1,157.1 		"/>
		<polygon id="XMLID_6511_" class="st0" points="41.1,160.7 42,160.7 40.2,162.2 38.4,160.7 39.3,160.7 39.3,158.9 35.7,158.9 
			35.7,160.7 36.6,160.7 39.3,163 36.6,165.2 35.7,165.2 35.7,167 39.3,167 39.3,165.2 38.4,165.2 40.2,163.7 42,165.2 41.1,165.2 
			41.1,167 44.7,167 44.7,165.2 43.8,165.2 41.1,163 43.8,160.7 44.7,160.7 44.7,158.9 41.1,158.9 		"/>
		<path id="XMLID_6518_" class="st1" d="M42,150.8h-7.2c-1,0-1.8,0.8-1.8,1.8V167c0,1,0.8,1.8,1.8,1.8h10.8c1,0,1.8-0.8,1.8-1.8
			v-10.8L42,150.8z M44.7,160.7h-0.9l-2.7,2.3l2.7,2.3h0.9v1.8h-3.6v-1.8H42l-1.8-1.5l-1.8,1.5h0.9v1.8h-3.6v-1.8h0.9l2.7-2.3
			l-2.7-2.3h-0.9v-1.8h3.6v1.8h-0.9l1.8,1.5l1.8-1.5h-0.9v-1.8h3.6V160.7z M41.1,157.1v-5l5,5H41.1z"/>
	</g>
	<g id="XMLID_6495_">
		<path id="XMLID_6498_" class="st0" d="M155.2,167.2c0.7,0,1.6-0.9,2.7-2.8l0.2-0.1c0.9-0.3,2.1-0.5,3.6-0.7c0.9,0.5,2,0.7,2.7,0.7
			c0.4,0,0.7-0.1,0.8-0.3c0.2-0.2,0.2-0.4,0.3-0.6c0-0.2,0-0.4-0.1-0.5c-0.3-0.4-0.9-0.6-2.1-0.6l-1.2,0.1l-0.8-0.5
			c-0.6-0.5-1.1-1.3-1.4-2.3l0-0.1c0.3-1.2,0.6-2.6,0-3.2c-0.1-0.1-0.3-0.2-0.5-0.2h-0.2c-0.3,0-0.6,0.4-0.7,0.7
			c-0.3,1.2-0.1,1.9,0.2,2.9v0c-0.2,0.8-0.5,1.7-1,2.6l-0.9,1.6l-0.8,0.4c-1.1,0.7-1.6,1.4-1.7,1.9c0,0.2,0,0.3,0,0.5l0,0l0.4,0.3
			L155.2,167.2z M163.1,163.2c1.3,0,1.6,0.2,1.7,0.3l0.1,0.1c0,0.1,0,0.1-0.1,0.1h0l-0.2,0c-0.4,0-1.1-0.2-1.7-0.5
			C163,163.2,163,163.2,163.1,163.2z M159.2,156.7l0.1-0.1l0.1,0c0.2,0.2,0.2,0.5,0.1,1l0,0.1l-0.1,0.7l0,0
			C159.1,157.8,159.1,157.1,159.2,156.7z M158.4,162.9c0.4-0.8,0.7-1.5,0.9-2.2c0.4,0.8,0.8,1.5,1.4,1.9l0.4,0.3
			c-0.8,0.1-1.9,0.4-3,0.8l-0.1,0L158.4,162.9z M156.1,165.1l0.4-0.3c-0.6,1.1-1.1,1.7-1.5,1.8C155.1,166.3,155.5,165.7,156.1,165.1
			z"/>
		<polygon id="XMLID_6524_" class="st0" points="161.2,152.6 161.2,157.6 166.2,157.6 		"/>
		<path id="XMLID_6528_" class="st1" d="M162.1,151.3h-7.2c-1,0-1.8,0.8-1.8,1.8v14.4c0,1,0.8,1.8,1.8,1.8h10.8c1,0,1.8-0.8,1.8-1.8
			v-10.8L162.1,151.3z M154.3,166.8c-0.1-0.2-0.1-0.3,0-0.5c0.1-0.5,0.6-1.2,1.7-1.9l0.8-0.4l0.9-1.6c0.5-0.9,0.7-1.8,1-2.6v0
			c-0.3-1.1-0.5-1.7-0.2-2.9c0.1-0.3,0.4-0.7,0.7-0.7h0.2c0.2,0,0.4,0.1,0.5,0.2c0.6,0.6,0.3,2,0,3.2l0,0.1c0.4,1,0.9,1.8,1.4,2.3
			l0.8,0.5l1.2-0.1c1.1,0,1.8,0.2,2.1,0.6c0.1,0.1,0.1,0.3,0.1,0.5c0,0.2-0.1,0.4-0.3,0.6c-0.2,0.2-0.4,0.3-0.8,0.3
			c-0.7,0-1.8-0.2-2.7-0.7c-1.6,0.2-2.7,0.4-3.6,0.7l-0.2,0.1c-1.1,1.9-1.9,2.8-2.7,2.8l-0.4-0.1L154.3,166.8L154.3,166.8z
			 M161.2,152.6l5,5h-5V152.6z"/>
		<path id="XMLID_6530_" class="st1" d="M156.5,164.8l-0.4,0.3c-0.6,0.6-1,1.2-1.1,1.5C155.4,166.5,156,165.9,156.5,164.8z"/>
		<path id="XMLID_6531_" class="st1" d="M161.1,162.9l-0.4-0.3c-0.5-0.5-1-1.1-1.4-1.9c-0.2,0.7-0.5,1.4-0.9,2.2l-0.5,0.9l0.1,0
			C159.2,163.3,160.3,163.1,161.1,162.9z"/>
		<path id="XMLID_6532_" class="st1" d="M164.8,163.7L164.8,163.7c0.1,0,0.1,0,0.1-0.1l-0.1-0.1c-0.1-0.1-0.5-0.3-1.7-0.3
			c-0.1,0-0.1,0-0.2,0.1c0.7,0.3,1.3,0.5,1.7,0.5L164.8,163.7z"/>
		<path id="XMLID_6540_" class="st1" d="M159.3,158.6l0.1-0.7l0-0.1c0.1-0.5,0.1-0.8-0.1-1l-0.1,0l-0.1,0.1
			C159.1,157.1,159.1,157.8,159.3,158.6L159.3,158.6z"/>
	</g>
	<g id="XMLID_6514_">
		<polygon id="XMLID_6537_" class="st0" points="40.1,32.1 40.1,37.1 45.1,37.1 		"/>
		<path id="XMLID_6543_" class="st0" d="M40.1,38.9h-4.5v1.8h0.9v5.4h-0.9V47h3.6v-0.9h-0.9v-1.8h1.8c1.5,0,2.7-1.2,2.7-2.7
			C42.9,40.1,41.6,38.9,40.1,38.9z M40.1,42.5h-1.8v-1.8h1.8c0.5,0,0.9,0.4,0.9,0.9C41,42.1,40.6,42.5,40.1,42.5z"/>
		<path id="XMLID_6546_" class="st1" d="M41,30.8h-7.2c-1,0-1.8,0.8-1.8,1.8V47c0,1,0.8,1.8,1.8,1.8h10.8c1,0,1.8-0.8,1.8-1.8V36.2
			L41,30.8z M40.1,44.3h-1.8v1.8h0.9V47h-3.6v-0.9h0.9v-5.4h-0.9v-1.8h4.5c1.5,0,2.7,1.2,2.7,2.7C42.9,43.1,41.6,44.3,40.1,44.3z
			 M40.1,37.1v-5l5,5H40.1z"/>
		<path id="XMLID_6548_" class="st1" d="M40.1,40.7h-1.8v1.8h1.8c0.5,0,0.9-0.4,0.9-0.9C41,41.1,40.6,40.7,40.1,40.7z"/>
	</g>
	<g id="XMLID_6490_">
		<polygon id="XMLID_6533_" class="st0" points="99.4,190.5 97.3,188.4 99.4,186.3 98.1,185.1 94.7,188.4 98.1,191.8 		"/>
		<polygon id="XMLID_6534_" class="st0" points="101.4,191.8 104.8,188.4 101.4,185.1 100.1,186.3 102.2,188.4 100.1,190.5 		"/>
		<polygon id="XMLID_6535_" class="st0" points="100.9,182.6 105.9,182.6 100.9,177.6 		"/>
		<path id="XMLID_6557_" class="st1" d="M101.8,176.3h-7.2c-1,0-1.8,0.8-1.8,1.8v14.4c0,1,0.8,1.8,1.8,1.8h10.8c1,0,1.8-0.8,1.8-1.8
			v-10.8L101.8,176.3z M100.1,186.3l1.3-1.3l3.4,3.4l-3.4,3.4l-1.3-1.3l2.1-2.1L100.1,186.3z M98.1,185.1l1.3,1.3l-2.1,2.1l2.1,2.1
			l-1.3,1.3l-3.4-3.4L98.1,185.1z M100.9,182.6v-5l5,5H100.9z"/>
	</g>
	<g id="XMLID_6504_">
		<polygon id="XMLID_6506_" class="st0" points="14.7,101.8 9.3,107.2 17.4,107.2 20.1,107.2 20.1,100 16.5,103.6 		"/>
		<circle id="XMLID_6507_" class="st0" cx="11.1" cy="99.1" r="1.8"/>
		<polygon id="XMLID_6508_" class="st0" points="15.6,92.3 15.6,97.3 20.6,97.3 		"/>
		<path id="XMLID_6550_" class="st1" d="M16.5,91H9.3c-1,0-1.8,0.8-1.8,1.8v14.4c0,1,0.8,1.8,1.8,1.8h10.8c1,0,1.8-0.8,1.8-1.8V96.4
			L16.5,91z M20.1,107.2h-2.7H9.3l5.4-5.4l1.8,1.8l3.6-3.6V107.2z M12.9,99.1c0,1-0.8,1.8-1.8,1.8c-1,0-1.8-0.8-1.8-1.8
			s0.8-1.8,1.8-1.8C12.1,97.3,12.9,98.1,12.9,99.1z M15.6,97.3v-5l5,5H15.6z"/>
	</g>
	<g id="XMLID_6499_">
		<path id="XMLID_6501_" class="st0" d="M98.2,18.6c-0.3-0.2-0.6-0.2-0.9-0.2c-1,0-1.8,0.8-1.8,1.8c0,1,0.8,1.8,1.8,1.8
			c1,0,1.8-0.8,1.8-1.8v-4.5h2.7v-1.8h-3.6V18.6z"/>
		<polygon id="XMLID_6502_" class="st0" points="100.9,7 100.9,12 105.9,12 		"/>
		<path id="XMLID_6560_" class="st1" d="M101.8,5.7h-7.2c-1,0-1.8,0.8-1.8,1.8v14.4c0,1,0.8,1.8,1.8,1.8h10.8c1,0,1.8-0.8,1.8-1.8
			V11.1L101.8,5.7z M101.8,15.6h-2.7v4.5c0,1-0.8,1.8-1.8,1.8c-1,0-1.8-0.8-1.8-1.8c0-1,0.8-1.8,1.8-1.8c0.3,0,0.6,0.1,0.9,0.2v-4.7
			h3.6V15.6z M100.9,12V7l5,5H100.9z"/>
	</g>
	<g id="XMLID_6509_">
		<polygon id="XMLID_6515_" class="st0" points="162.2,40.5 155.9,40.5 155.9,45.9 162.2,45.9 162.2,43.9 164.9,45.9 164.9,40.5 
			162.2,42.5 		"/>
		<polygon id="XMLID_6516_" class="st0" points="161.3,31.9 161.3,36.9 166.2,36.9 		"/>
		<path id="XMLID_6541_" class="st1" d="M162.2,30.6H155c-1,0-1.8,0.8-1.8,1.8v14.4c0,1,0.8,1.8,1.8,1.8h10.8c1,0,1.8-0.8,1.8-1.8
			V36L162.2,30.6z M164.9,45.9l-2.7-2v2h-6.3v-5.4h6.3v2l2.7-2V45.9z M161.3,36.9v-5l5,5H161.3z"/>
	</g>
</g>
</svg>
