<?xml version="1.0" encoding="utf-8"?>
<!-- Generator: Adobe Illustrator 19.0.0, SVG Export Plug-In . SVG Version: 6.00 Build 0)  -->
<svg version="1.1" id="Layer_1" xmlns="http://www.w3.org/2000/svg" xmlns:xlink="http://www.w3.org/1999/xlink" x="0px" y="0px"
	 viewBox="0 0 200 200" style="enable-background:new 0 0 200 200;" xml:space="preserve">
<style type="text/css">
	.st0{fill:#CFD8DC;}
</style>
<g id="XMLID_645_">
	<path id="XMLID_669_" class="st0" d="M195,113.2l-11.5-30.9l-5-2.3l-4.5-29.2l-26.5-19.5l-21.3,3.2l-2.1-12l-27-18.9L66.5,9.2
		c-4.2,0.8-7,4.8-6.3,9l3.5,20l-18.3-1.4c-4.3-0.3-8,2.8-8.3,7.1l-2.9,37L10,90.2c-4,1.5-6,6-4.5,10l22.3,58
		c0.2,0.6,0.6,1.2,0.9,1.7c-0.4,2-0.7,4.1-0.7,6.2c0,16.6,13.5,30.1,30.1,30.1h14.7h72.9h7.2c8.5,0,16.6-3.6,21.9-9.5
		c7.6-6.9,12-16.8,12-27c0-6.6-1.8-12.8-4.9-18.1L195,113.2z M166.1,178.9c-3.1,3.4-8.1,5.6-13.1,5.6h-7.2H72.9H58.2
		c-10.1,0-18.3-8.2-18.3-18.3c0-10.1,8.2-18.3,18.3-18.3c3.2,0,6.2-1.3,8.4-3.5c2.2-2.3,3.4-5.3,3.4-8.5c0-0.3,0-0.6,0-0.9
		c0-18.2,14.8-32.9,32.9-32.9c15,0,28.1,10.1,31.9,24.5c1.4,5.3,6.1,8.8,11.4,8.8c0.5,0,0.9,0,1.4-0.1c0.9-0.1,1.8-0.2,2.7-0.2
		c13.6,0,24.7,11.1,24.7,24.7c0,6.9-3,13.6-8.1,18.3C166.7,178.3,166.4,178.6,166.1,178.9z M30.9,90.5l9.8,25.4l25.4-9.8l0.9,2.4
		c-5.5,7.4-8.7,16.6-8.7,26.5c0,0.4,0,0.7,0,1.1h0c-10.6,0-19.9,5.5-25.3,13.8L12.8,97.4L30.9,90.5z M37.4,85.9L65,98.1l-19.9,7.7
		L37.4,85.9z M64.2,46l-2.1,27.1l21.3,1.7l-1.6,20.8c-3.3,1.8-6.3,3.9-9,6.4l-3.7-9.6l-27-12l2.8-35.9L64.2,46z M87,13.4l4.7,26.8
		l26.8-4.7l0.1,0.3l-1.7,0.3c-4.3,0.6-7.2,4.6-6.5,8.8l1.8,11.9l-19.5-1.5c-0.8-0.1-1.5,0-2.3,0.2l-14-16.3l-4.6-0.4l-3.9-22
		L87,13.4z M94.3,10.2L119,27.5l-21,3.7L94.3,10.2z M141.3,67.7l26.9-4.1l1.9,12.7l-14.8-6.8c-3.9-1.8-8.5-0.1-10.3,3.8l-2.8,6.1
		l-18.5-21.7l-3.5-0.3L118,43.7l19.2-2.9L141.3,67.7z M144.6,37.7l24.3,17.9l-21.1,3.2L144.6,37.7z M92,63.1l19.4,1.5l-2,26.1
		c-2.1-0.3-4.2-0.5-6.4-0.5c-4.6,0-9,0.7-13.2,2L92,63.1z M138.9,86.2l-21.3-1.7l1.7-21.3L138.9,86.2z M136.4,93.8l-0.8,10.4
		c-5.2-5.5-11.8-9.6-19.1-11.9L136.4,93.8z M150.4,123.3c-1.4,0-2.7,0.1-4.1,0.2c-0.9-3.4-2.1-6.6-3.7-9.5l1.6-20.3l7.8-17.1
		l17.7,8.1l-11.3,24.7l24.7,11.3l-6.4,14C170.1,127.6,160.7,123.3,150.4,123.3z M168.7,105.5l8.9-19.4l10.6,28.3L168.7,105.5z
		 M72.1,44.6L85,59.8c-0.4,0.8-0.6,1.7-0.7,2.7L84,67l-13.5-1.1L72.1,44.6z"/>
	<polygon id="XMLID_747_" class="st0" points="114.4,143.6 107.5,127.3 100.6,143.6 83,145.1 96.4,156.7 92.4,173.9 107.5,164.8 
		122.7,173.9 118.6,156.7 132,145.1 	"/>
</g>
</svg>
