<?xml version="1.0" encoding="utf-8"?>
<!-- Generator: Adobe Illustrator 19.0.0, SVG Export Plug-In . SVG Version: 6.00 Build 0)  -->
<svg version="1.1" id="Layer_1" xmlns="http://www.w3.org/2000/svg" xmlns:xlink="http://www.w3.org/1999/xlink" x="0px" y="0px"
	 viewBox="0 0 200 200" style="enable-background:new 0 0 200 200;" xml:space="preserve">
<style type="text/css">
	.st0{fill:#CFD8DC;}
</style>
<g id="XMLID_890_">
	<polygon id="XMLID_895_" class="st0" points="147.4,111.5 128.2,92.3 147.4,73.1 134.6,60.3 115.4,79.5 96.2,60.3 83.4,73.1 
		102.6,92.3 83.4,111.5 96.2,124.3 115.4,105.1 134.6,124.3 	"/>
	<path id="XMLID_892_" class="st0" d="M177.1,38.3c8.5,0,15.4,6.9,15.4,15.4v77.1c0,8.5-6.9,15.4-15.4,15.4H53.7
		c-8.5,0-15.4-6.9-15.4-15.4V38.3c0-8.5,6.9-15.4,15.4-15.4H100l15.4,15.4H177.1 M53.7,53.8v77.1h123.3V53.8H53.7z"/>
	<path id="XMLID_891_" class="st0" d="M22.9,53.8v107.9h138.7v15.4H22.9c-8.5,0-15.4-6.9-15.4-15.4V92.3l0,0V53.8H22.9"/>
</g>
</svg>
