<?xml version="1.0" encoding="utf-8"?>
<!-- Generator: Adobe Illustrator 19.0.0, SVG Export Plug-In . SVG Version: 6.00 Build 0)  -->
<svg version="1.1" id="Layer_5" xmlns="http://www.w3.org/2000/svg" xmlns:xlink="http://www.w3.org/1999/xlink" x="0px" y="0px"
	 viewBox="0 0 20 20" style="enable-background:new 0 0 20 20;" xml:space="preserve">
<style type="text/css">
	.st0{fill:#567A91;}
</style>
<path id="XMLID_93_" class="st0" d="M16,14.1c-0.8,0-1.4,0.3-2,0.8l-7.2-4.2C6.9,10.5,7,10.3,7,10c0-0.2,0-0.5-0.1-0.7L14,5.2
	C14.5,5.7,15.2,6,16,6c1.7,0,3-1.3,3-3s-1.3-3-3-3s-3,1.3-3,3c0,0.2,0,0.5,0.1,0.7L6,7.8C5.5,7.3,4.8,7,4,7c-1.7,0-3,1.3-3,3
	s1.3,3,3,3c0.8,0,1.5-0.3,2-0.8l7.2,4.2c-0.1,0.2-0.1,0.4-0.1,0.7c0,1.6,1.3,2.9,2.9,2.9s2.9-1.3,2.9-2.9C19,15.5,17.6,14.1,16,14.1
	z"/>
</svg>
