<?xml version="1.0" encoding="UTF-8" standalone="no"?>
<!-- Generator: Adobe Illustrator 19.0.0, SVG Export Plug-In . SVG Version: 6.00 Build 0)  -->

<svg
   xmlns:dc="http://purl.org/dc/elements/1.1/"
   xmlns:cc="http://creativecommons.org/ns#"
   xmlns:rdf="http://www.w3.org/1999/02/22-rdf-syntax-ns#"
   xmlns:svg="http://www.w3.org/2000/svg"
   xmlns="http://www.w3.org/2000/svg"
   xmlns:sodipodi="http://sodipodi.sourceforge.net/DTD/sodipodi-0.dtd"
   xmlns:inkscape="http://www.inkscape.org/namespaces/inkscape"
   version="1.1"
   x="0px"
   y="0px"
   viewBox="0 0 24 24"
   style="enable-background:new 0 0 24 24;"
   xml:space="preserve"
   id="svg2"
   inkscape:version="0.48.4 r9939"
   width="100%"
   height="100%"
   sodipodi:docname="volume_unlocked.svg"><metadata
     id="metadata18"><rdf:RDF><cc:Work
         rdf:about=""><dc:format>image/svg+xml</dc:format><dc:type
           rdf:resource="http://purl.org/dc/dcmitype/StillImage" /></cc:Work></rdf:RDF></metadata><defs
     id="defs16" /><sodipodi:namedview
     pagecolor="#ffffff"
     bordercolor="#666666"
     borderopacity="1"
     objecttolerance="10"
     gridtolerance="10"
     guidetolerance="10"
     inkscape:pageopacity="0"
     inkscape:pageshadow="2"
     inkscape:window-width="1920"
     inkscape:window-height="1148"
     id="namedview14"
     showgrid="false"
     inkscape:zoom="39.333333"
     inkscape:cx="9.3103434"
     inkscape:cy="8.1846575"
     inkscape:window-x="0"
     inkscape:window-y="0"
     inkscape:window-maximized="1"
     inkscape:current-layer="svg2" /><style
     type="text/css"
     id="style4">
	.st0{fill:#2196F3;}
</style><g
     id="icon" /><g
     id="border" /><g
     id="grid" /><g
     id="keylines" /><path
     id="XMLID_5965_"
     class="st0"
     d="M 20,18 H 4 V 8 H 20 M 20,6 H 12 L 10,4 H 4 C 2.9,4 2,4.9 2,6 v 12 c 0,1.1 0.9,2 2,2 h 16 c 1.1,0 2,-0.9 2,-2 V 8 C 22,6.9 21.1,6 20,6 z"
     inkscape:connector-curvature="0"
     style="fill:#2196f3" /><path
     class="st0"
     d="m 10,11.5 c -0.4,0 -0.7,0.3 -0.7,0.7 l 0,3.3 c 0,0.4 0.3,0.7 0.7,0.7 l 4,0 c 0.4,0 0.7,-0.3 0.7,-0.7 l 0,-3.3 c 0,-0.4 -0.3,-0.7 -0.7,-0.7 l -0.29032,-0.0434 0,-0.951682 c 0,-0.6000001 0.4,-1.0000001 1,-1.0000001 0.6,0 0.923729,0.3618644 0.885593,2.0169491 l 0.682023,0 C 16.353567,9.9354264 15.70968,8.8049179 14.70968,8.8049179 c -1,0 -1.7,0.7 -1.7,1.7000001 l 0,0.951682 L 10,11.5 m 2,3 c -0.4,0 -0.7,-0.3 -0.7,-0.7 0,-0.4 0.3,-0.7 0.7,-0.7 0.4,0 0.7,0.3 0.7,0.7 0,0.4 -0.3,0.7 -0.7,0.7 z"
     inkscape:connector-curvature="0"
     style="fill:#2196f3"
     sodipodi:nodetypes="cssssssscssccssccsssss" /></svg>