<?xml version="1.0" encoding="utf-8"?>
<!-- Generator: Adobe Illustrator 19.0.0, SVG Export Plug-In . SVG Version: 6.00 Build 0)  -->
<svg version="1.1" xmlns="http://www.w3.org/2000/svg" xmlns:xlink="http://www.w3.org/1999/xlink" x="0px" y="0px"
	 viewBox="0 0 24 24" style="enable-background:new 0 0 24 24;" xml:space="preserve">
<style type="text/css">
	.st0{fill:#2196F3;}
</style>
<g id="icon">
</g>
<g id="border">
</g>
<g id="grid">
</g>
<g id="keylines">
</g>
<g id="Layer_5">
	<g id="XMLID_6426_">
		<path id="XMLID_5969_" class="st0" d="M20,18H4V8h16 M20,6h-8l-2-2H4C2.9,4,2,4.9,2,6v12c0,1.1,0.9,2,2,2h16c1.1,0,2-0.9,2-2V8
			C22,6.9,21.1,6,20,6z"/>
		<path id="XMLID_6806_" class="st0" d="M12,14.5c0.4,0,0.7-0.3,0.7-0.7c0-0.4-0.3-0.7-0.7-0.7c-0.4,0-0.7,0.3-0.7,0.7
			C11.3,14.2,11.6,14.5,12,14.5 M14,11.5c0.4,0,0.7,0.3,0.7,0.7v3.3c0,0.4-0.3,0.7-0.7,0.7h-4c-0.4,0-0.7-0.3-0.7-0.7v-3.3
			c0-0.4,0.3-0.7,0.7-0.7h0.3v-0.7c0-0.9,0.7-1.7,1.7-1.7s1.7,0.7,1.7,1.7v0.7H14 M12,9.9c-0.6,0-1,0.4-1,1v0.7h2v-0.7
			C13,10.3,12.6,9.9,12,9.9z"/>
	</g>
</g>
</svg>
