<?xml version="1.0" encoding="utf-8"?>
<!-- Generator: Adobe Illustrator 19.2.1, SVG Export Plug-In . SVG Version: 6.00 Build 0)  -->
<svg version="1.1" id="Layer_1" xmlns="http://www.w3.org/2000/svg" xmlns:xlink="http://www.w3.org/1999/xlink" x="0px" y="0px"
	 viewBox="0 0 151.5 162.3" style="enable-background:new 0 0 151.5 162.3;" xml:space="preserve">
<style type="text/css">
	.st0{fill:#34495E;}
	.st1{fill:#ECF0F1;}
	.st2{fill:#35495E;}
	.st3{fill:#FFFFFF;}
	.st4{fill:#4D4D4D;}
	.st5{fill:#2C3E50;}
</style>
<path class="st0" d="M79.8,152H15.2C6.8,152,0,145.2,0,136.8V15.2C0,6.8,6.8,0,15.2,0h64.6C88.2,0,95,6.8,95,15.2v121.6
	C95,145.2,88.2,152,79.8,152z"/>
<path class="st1" d="M57,11.5H38c-1.1,0-2-0.9-2-2s0.9-2,2-2h19c1.1,0,2,0.9,2,2S58.1,11.5,57,11.5z"/>
<circle class="st2" cx="83.1" cy="9.5" r="2.4"/>
<circle class="st2" cx="33.1" cy="9.5" r="1.3"/>
<circle class="st2" cx="29.8" cy="9.5" r="1.3"/>
<path class="st3" d="M90.2,18.5v110.7c0,2.1-1.7,3.8-3.8,3.8H8.6c-2.1,0-3.8-1.7-3.8-3.8V18.5c0-2.1,1.7-3.8,3.8-3.8h77.9
	C88.5,14.7,90.2,16.4,90.2,18.5z"/>
<path class="st1" d="M57,144.4H38c-1,0-1.9-0.8-1.9-1.9l0,0c0-1,0.8-1.9,1.9-1.9h19c1,0,1.9,0.8,1.9,1.9l0,0
	C58.9,143.5,58,144.4,57,144.4z"/>
<g>
	<path class="st0" d="M29.8,65.2c-1.7,0-3,1.3-3,3l0,0v5.1v2.4v5.1l0,0c0,1.7,1.3,3,3,3s3-1.3,3-3l0,0v-5.1v-2.4v-5.1l0,0
		C32.8,66.6,31.5,65.2,29.8,65.2z"/>
	<path class="st0" d="M68.1,68.2c0-1.7-1.3-3-3-3c-1.7,0-3,1.3-3,3l0,0v5.1v2.4v5.1l0,0c0,1.7,1.3,3,3,3c1.7,0,3-1.3,3-3l0,0v-5.1
		v-2.4V68.2L68.1,68.2z"/>
	<path class="st0" d="M34.1,65.7L34.1,65.7L34,85.5c0,1.6,1.3,3,3,3h2.5v1.8v5.1l0,0c0,1.7,1.3,3,3,3s3-1.3,3-3l0,0v-5.1v-1.8h4.1
		v1.8v5.1c0,1.7,1.3,3,3,3s3-1.3,3-3v-5.1v-1.8h2.5c1.6,0,3-1.3,3-3V65.7l0,0H34.1z"/>
	<path class="st0" d="M61,64.7v-1.4c0-0.4-0.1-0.8-0.2-1.2c-0.7-3.5-3.2-6.5-6.6-8.2l2.1-3.8c0.1-0.2,0-0.5-0.2-0.7
		c-0.2-0.1-0.5,0-0.7,0.2l-2.1,3.9c-1.8-0.8-3.8-1.2-5.9-1.2c-2.1,0-4.1,0.4-5.9,1.2l-2.1-3.9c-0.1-0.2-0.4-0.3-0.7-0.2
		c-0.2,0.1-0.3,0.4-0.2,0.7l2.1,3.8c-3.2,1.7-5.6,4.5-6.4,7.8c-0.2,0.9-0.3,1.8-0.3,2.7c0,0.1,0,0.3,0,0.4L61,64.7L61,64.7z
		 M53.7,57.3c0.7,0,1.3,0.6,1.3,1.3s-0.6,1.3-1.3,1.3s-1.3-0.6-1.3-1.3C52.4,57.9,53,57.3,53.7,57.3z M41.3,57.3
		c0.7,0,1.3,0.6,1.3,1.3s-0.6,1.3-1.3,1.3S40,59.3,40,58.6C40,57.9,40.6,57.3,41.3,57.3z"/>
</g>
<g>
	<path id="XMLID_4554_" class="st4" d="M151.5,153.3c0,5.1-6.9,9.1-12,9.1h-59c-5.1,0-8.9-3.9-8.9-9.1V25.9c0-5.1,3.8-9.5,8.9-9.5
		h59c5.2,0,12,4.4,12,9.5V153.3z"/>
	<path id="XMLID_4186_" class="st5" d="M150.5,152.3c0,5.1-6.9,9.1-12,9.1h-59c-5.1,0-8.9-3.9-8.9-9.1V24.9c0-5.1,3.8-9.5,8.9-9.5
		h59c5.2,0,12,4.4,12,9.5V152.3z"/>
	<path id="XMLID_4551_" class="st0" d="M151.5,153.3c0,5.1-6.9,9.1-12,9.1h-59c-5.1,0-8.9-3.9-8.9-9.1V25.9c0-5.1,3.8-9.5,8.9-9.5
		h59c5.2,0,12,4.4,12,9.5V153.3z"/>
	<rect id="XMLID_4550_" x="77.5" y="33.3" class="st3" width="67" height="108"/>
	<path id="XMLID_4546_" class="st1" d="M125.5,26.9c0,0.8-0.7,1.5-1.5,1.5H96c-0.8,0-1.5-0.7-1.5-1.5l0,0c0-0.8,0.7-1.5,1.5-1.5h28
		C124.8,25.3,125.5,26,125.5,26.9L125.5,26.9z"/>
</g>
<path class="st1" d="M121.1,153.9h-19c-1,0-1.9-0.8-1.9-1.9l0,0c0-1,0.8-1.9,1.9-1.9h19c1,0,1.9,0.8,1.9,1.9l0,0
	C122.9,153,122.1,153.9,121.1,153.9z"/>
<g>
	<path class="st0" d="M93.3,78.6c-1.7,0-3,1.3-3,3l0,0v5.1v2.4v5.1l0,0c0,1.7,1.3,3,3,3c1.7,0,3-1.3,3-3l0,0v-5.1v-2.4v-5.1l0,0
		C96.3,80,95.1,78.6,93.3,78.6z"/>
	<path class="st0" d="M131.6,81.6c0-1.7-1.3-3-3-3s-3,1.3-3,3l0,0v5.1v2.4v5.1l0,0c0,1.7,1.3,3,3,3s3-1.3,3-3l0,0v-5.1v-2.4V81.6
		L131.6,81.6z"/>
	<path class="st0" d="M97.7,79.1L97.7,79.1l-0.1,19.8c0,1.6,1.3,3,3,3h2.5v1.8v5.1l0,0c0,1.7,1.3,3,3,3c1.7,0,3-1.3,3-3l0,0v-5.1
		v-1.8h4.1v1.8v5.1c0,1.7,1.3,3,3,3c1.7,0,3-1.3,3-3v-5.1v-1.8h2.5c1.6,0,3-1.3,3-3V79.1l0,0H97.7z"/>
	<path class="st0" d="M124.6,78.1v-1.4c0-0.4-0.1-0.8-0.2-1.2c-0.7-3.5-3.2-6.5-6.6-8.2l2.1-3.8c0.1-0.2,0-0.5-0.2-0.7
		c-0.2-0.1-0.5,0-0.7,0.2l-2.1,3.9c-1.8-0.8-3.8-1.2-5.9-1.2c-2.1,0-4.1,0.4-5.9,1.2l-2.1-3.9c-0.1-0.2-0.4-0.3-0.7-0.2
		c-0.2,0.1-0.3,0.4-0.2,0.7l2.1,3.8c-3.2,1.7-5.6,4.5-6.4,7.8c-0.2,0.9-0.3,1.8-0.3,2.7c0,0.1,0,0.3,0,0.4L124.6,78.1L124.6,78.1z
		 M117.2,70.7c0.7,0,1.3,0.6,1.3,1.3c0,0.7-0.6,1.3-1.3,1.3c-0.7,0-1.3-0.6-1.3-1.3C116,71.3,116.6,70.7,117.2,70.7z M104.8,70.7
		c0.7,0,1.3,0.6,1.3,1.3c0,0.7-0.6,1.3-1.3,1.3c-0.7,0-1.3-0.6-1.3-1.3C103.6,71.3,104.2,70.7,104.8,70.7z"/>
</g>
</svg>
